%TF.GenerationSoftware,KiCad,Pcbnew,8.0.7*%
%TF.CreationDate,2024-12-31T00:41:55+01:00*%
%TF.ProjectId,BeDECT,42654445-4354-42e6-9b69-6361645f7063,rev?*%
%TF.SameCoordinates,Original*%
%TF.FileFunction,Copper,L2,Inr*%
%TF.FilePolarity,Positive*%
%FSLAX46Y46*%
G04 Gerber Fmt 4.6, Leading zero omitted, Abs format (unit mm)*
G04 Created by KiCad (PCBNEW 8.0.7) date 2024-12-31 00:41:55*
%MOMM*%
%LPD*%
G01*
G04 APERTURE LIST*
%TA.AperFunction,ComponentPad*%
%ADD10R,1.700000X1.700000*%
%TD*%
%TA.AperFunction,ComponentPad*%
%ADD11O,1.700000X1.700000*%
%TD*%
%TA.AperFunction,ComponentPad*%
%ADD12C,1.700000*%
%TD*%
%TA.AperFunction,ViaPad*%
%ADD13C,0.600000*%
%TD*%
%TA.AperFunction,Conductor*%
%ADD14C,0.450000*%
%TD*%
G04 APERTURE END LIST*
D10*
%TO.N,Net-(C7-Pad1)*%
%TO.C,LS1*%
X171150000Y-78800000D03*
D11*
%TO.N,Net-(C6-Pad1)*%
X173690000Y-78800000D03*
%TD*%
D12*
%TO.N,+5VPI_p*%
%TO.C,J1*%
X119020000Y-96500000D03*
D10*
%TO.N,GND*%
X121560000Y-96500000D03*
D11*
%TO.N,+3V3PI*%
X124100000Y-96500000D03*
%TO.N,/Pi_SCL*%
X126640000Y-96500000D03*
%TO.N,/Pi_SDA*%
X129180000Y-96500000D03*
%TO.N,/Pi_GPIO4*%
X131720000Y-96500000D03*
%TO.N,/Pi_GPIO14*%
X134260000Y-96500000D03*
%TO.N,/Pi_GPIO15*%
X136800000Y-96500000D03*
%TO.N,/Pi_GPIO17*%
X139340000Y-96500000D03*
%TO.N,/Pi_GPIO18*%
X141880000Y-96500000D03*
%TO.N,/Pi_GPIO27*%
X144420000Y-96500000D03*
D10*
%TO.N,GND*%
X146960000Y-96500000D03*
D11*
%TO.N,/Pi_GPIO22*%
X149500000Y-96500000D03*
%TO.N,/Pi_GPIO23*%
X152040000Y-96500000D03*
%TO.N,/Pi_GPIO24*%
X154580000Y-96500000D03*
%TO.N,/Pi_GPIO10*%
X157120000Y-96500000D03*
%TO.N,/Pi_GPIO09*%
X159660000Y-96500000D03*
%TO.N,/Pi_GPIO25*%
X162200000Y-96500000D03*
%TO.N,/Pi_GPIO11*%
X164740000Y-96500000D03*
%TO.N,/Pi_GPIO08*%
X167280000Y-96500000D03*
%TO.N,/Pi_GPIO07*%
X169820000Y-96500000D03*
D10*
%TO.N,GND*%
X172360000Y-96500000D03*
X174900000Y-96500000D03*
%TD*%
D13*
%TO.N,GND*%
X170700000Y-93700000D03*
X167600000Y-93700000D03*
X169100000Y-93700000D03*
X166100000Y-93700000D03*
X164600000Y-93700000D03*
X164300000Y-81100000D03*
X162800000Y-81100000D03*
X165800000Y-84200000D03*
X165800000Y-82700000D03*
X164300000Y-82700000D03*
X164300000Y-84200000D03*
X176100000Y-85700000D03*
X176100000Y-84300000D03*
X174600000Y-84300000D03*
X172200000Y-93700000D03*
X173700000Y-92200000D03*
X173700000Y-93700000D03*
X172200000Y-92200000D03*
X157200000Y-93700000D03*
X155700000Y-93700000D03*
X158600000Y-93700000D03*
X160100000Y-92200000D03*
X160100000Y-93700000D03*
X158600000Y-92200000D03*
X163100000Y-93700000D03*
X161600000Y-93700000D03*
X161600000Y-90700000D03*
X163100000Y-90700000D03*
X163100000Y-92200000D03*
X161600000Y-92200000D03*
X123500000Y-89800000D03*
X123500000Y-88300000D03*
X129400000Y-88200000D03*
X130900000Y-88200000D03*
X125000000Y-91400000D03*
X128000000Y-91400000D03*
X126500000Y-91400000D03*
X133800000Y-85200000D03*
X132300000Y-85200000D03*
X135600000Y-86800000D03*
X134100000Y-86800000D03*
X132400000Y-86800000D03*
X129400000Y-86800000D03*
X130900000Y-86800000D03*
X128000000Y-86800000D03*
X125000000Y-86800000D03*
X125000000Y-88300000D03*
X126500000Y-88300000D03*
X128000000Y-88300000D03*
X125000000Y-89800000D03*
X126500000Y-86800000D03*
X126500000Y-89800000D03*
X128000000Y-89800000D03*
X138800000Y-84800000D03*
X137300000Y-84800000D03*
X135800000Y-84800000D03*
X138800000Y-83300000D03*
X137300000Y-83300000D03*
X135800000Y-83300000D03*
X138800000Y-81800000D03*
X137300000Y-81800000D03*
X135800000Y-81800000D03*
%TO.N,+3V3PI*%
X119150000Y-75650000D03*
X121200000Y-79475000D03*
X121800000Y-93000000D03*
%TO.N,/Pi_GPIO24*%
X120000000Y-78700000D03*
X153850000Y-94700000D03*
%TO.N,/Pi_GPIO23*%
X120000000Y-84300000D03*
X151550000Y-94700000D03*
%TO.N,/Pi_GPIO22*%
X120000000Y-89900000D03*
X149100000Y-94700000D03*
%TO.N,GND*%
X174600000Y-90600000D03*
X163300000Y-87300000D03*
%TO.N,+3V3PI*%
X172100000Y-87400000D03*
X137500000Y-89000000D03*
X145575000Y-89175000D03*
X173200000Y-85700000D03*
X160725000Y-83500000D03*
%TO.N,Net-(U1-LSRn)*%
X141000000Y-82400000D03*
X161700000Y-79200000D03*
%TO.N,Net-(U1-JTAG)*%
X161600000Y-87300000D03*
%TO.N,Net-(U1-LSRp)*%
X161700000Y-77600000D03*
X141000000Y-81599997D03*
%TD*%
D14*
%TO.N,+3V3PI*%
X121800000Y-93025000D02*
X124100000Y-95325000D01*
X121800000Y-93000000D02*
X121800000Y-93025000D01*
X124100000Y-95325000D02*
X124100000Y-96500000D01*
X121800000Y-93000000D02*
X120875000Y-92075000D01*
X120875000Y-92075000D02*
X120875000Y-79800000D01*
X120875000Y-79800000D02*
X121200000Y-79475000D01*
X121200000Y-79475000D02*
X121200000Y-77700000D01*
X121200000Y-77700000D02*
X119150000Y-75650000D01*
X160725000Y-83500000D02*
X160225000Y-84000000D01*
X160225000Y-84000000D02*
X158600000Y-84000000D01*
X160600000Y-86000000D02*
X158600000Y-84000000D01*
X151100000Y-86400000D02*
X153500000Y-84000000D01*
X172100000Y-87400000D02*
X170700000Y-86000000D01*
X153500000Y-84000000D02*
X158600000Y-84000000D01*
X173200000Y-85700000D02*
X172100000Y-86800000D01*
X145575000Y-89125000D02*
X142850000Y-86400000D01*
X139600000Y-86400000D02*
X151100000Y-86400000D01*
X142850000Y-86400000D02*
X142800000Y-86400000D01*
X170700000Y-86000000D02*
X160600000Y-86000000D01*
X137500000Y-89000000D02*
X137500000Y-88500000D01*
X137500000Y-88500000D02*
X139600000Y-86400000D01*
X172100000Y-86800000D02*
X172100000Y-87400000D01*
X145575000Y-89175000D02*
X145575000Y-89125000D01*
X137500000Y-89000000D02*
X131600000Y-89000000D01*
X131600000Y-89000000D02*
X124100000Y-96500000D01*
%TD*%
%TA.AperFunction,Conductor*%
%TO.N,GND*%
G36*
X170556842Y-75019407D02*
G01*
X170592806Y-75068907D01*
X170592806Y-75130093D01*
X170556842Y-75179593D01*
X170529243Y-75193655D01*
X170525781Y-75194779D01*
X170343390Y-75287712D01*
X170343386Y-75287714D01*
X170177786Y-75408029D01*
X170033029Y-75552786D01*
X169912714Y-75718386D01*
X169912712Y-75718390D01*
X169819780Y-75900780D01*
X169756521Y-76095470D01*
X169724500Y-76297644D01*
X169724500Y-76502355D01*
X169756521Y-76704529D01*
X169819780Y-76899219D01*
X169912712Y-77081609D01*
X169912714Y-77081613D01*
X170033029Y-77247213D01*
X170033031Y-77247215D01*
X170033034Y-77247219D01*
X170177781Y-77391966D01*
X170177784Y-77391968D01*
X170177786Y-77391970D01*
X170343386Y-77512285D01*
X170343390Y-77512287D01*
X170441526Y-77562290D01*
X170484791Y-77605555D01*
X170494362Y-77665987D01*
X170466584Y-77720504D01*
X170412068Y-77748281D01*
X170396581Y-77749500D01*
X170280252Y-77749500D01*
X170280251Y-77749500D01*
X170280241Y-77749501D01*
X170221772Y-77761132D01*
X170221766Y-77761134D01*
X170155451Y-77805445D01*
X170155445Y-77805451D01*
X170111134Y-77871766D01*
X170111132Y-77871772D01*
X170099501Y-77930241D01*
X170099500Y-77930253D01*
X170099500Y-79669746D01*
X170099501Y-79669758D01*
X170111132Y-79728227D01*
X170111134Y-79728233D01*
X170155445Y-79794548D01*
X170155448Y-79794552D01*
X170221769Y-79838867D01*
X170266231Y-79847711D01*
X170280241Y-79850498D01*
X170280246Y-79850498D01*
X170280252Y-79850500D01*
X170280253Y-79850500D01*
X172019747Y-79850500D01*
X172019748Y-79850500D01*
X172078231Y-79838867D01*
X172144552Y-79794552D01*
X172188867Y-79728231D01*
X172200500Y-79669748D01*
X172200500Y-77930252D01*
X172198921Y-77922316D01*
X172194834Y-77901769D01*
X172188867Y-77871769D01*
X172144552Y-77805448D01*
X172144548Y-77805445D01*
X172078233Y-77761134D01*
X172078231Y-77761133D01*
X172078228Y-77761132D01*
X172078227Y-77761132D01*
X172019758Y-77749501D01*
X172019748Y-77749500D01*
X171653419Y-77749500D01*
X171595228Y-77730593D01*
X171559264Y-77681093D01*
X171559264Y-77619907D01*
X171595228Y-77570407D01*
X171608474Y-77562290D01*
X171628805Y-77551930D01*
X171706610Y-77512287D01*
X171726487Y-77497846D01*
X171872213Y-77391970D01*
X171872219Y-77391966D01*
X172016966Y-77247219D01*
X172137287Y-77081610D01*
X172230220Y-76899219D01*
X172230845Y-76897296D01*
X172231244Y-76896745D01*
X172231709Y-76895625D01*
X172231978Y-76895736D01*
X172266809Y-76847796D01*
X172325000Y-76828888D01*
X172383190Y-76847795D01*
X172418021Y-76895736D01*
X172418291Y-76895625D01*
X172418755Y-76896746D01*
X172419154Y-76897295D01*
X172419155Y-76897296D01*
X172419779Y-76899217D01*
X172512712Y-77081609D01*
X172512714Y-77081613D01*
X172633029Y-77247213D01*
X172633031Y-77247215D01*
X172633034Y-77247219D01*
X172777781Y-77391966D01*
X172777784Y-77391968D01*
X172777786Y-77391970D01*
X172943386Y-77512285D01*
X172943390Y-77512287D01*
X173125781Y-77605220D01*
X173259769Y-77648755D01*
X173309269Y-77684719D01*
X173328176Y-77742910D01*
X173309269Y-77801101D01*
X173275845Y-77830220D01*
X173103547Y-77922316D01*
X172943595Y-78053585D01*
X172943585Y-78053595D01*
X172812316Y-78213547D01*
X172714768Y-78396045D01*
X172654699Y-78594065D01*
X172654698Y-78594070D01*
X172634417Y-78799996D01*
X172634417Y-78800003D01*
X172654698Y-79005929D01*
X172654699Y-79005934D01*
X172714768Y-79203954D01*
X172812316Y-79386452D01*
X172884987Y-79475002D01*
X172943590Y-79546410D01*
X172943595Y-79546414D01*
X173103547Y-79677683D01*
X173103548Y-79677683D01*
X173103550Y-79677685D01*
X173286046Y-79775232D01*
X173423997Y-79817078D01*
X173484065Y-79835300D01*
X173484070Y-79835301D01*
X173689997Y-79855583D01*
X173690000Y-79855583D01*
X173690003Y-79855583D01*
X173895929Y-79835301D01*
X173895934Y-79835300D01*
X174093954Y-79775232D01*
X174276450Y-79677685D01*
X174436410Y-79546410D01*
X174567685Y-79386450D01*
X174665232Y-79203954D01*
X174725300Y-79005934D01*
X174725301Y-79005929D01*
X174745583Y-78800003D01*
X174745583Y-78799996D01*
X174725301Y-78594070D01*
X174725300Y-78594065D01*
X174707078Y-78533997D01*
X174665232Y-78396046D01*
X174567685Y-78213550D01*
X174436410Y-78053590D01*
X174436404Y-78053585D01*
X174276452Y-77922316D01*
X174190265Y-77876248D01*
X174093954Y-77824768D01*
X174061768Y-77815004D01*
X174011573Y-77780019D01*
X173991527Y-77722211D01*
X174009289Y-77663660D01*
X174058073Y-77626732D01*
X174059887Y-77626122D01*
X174124219Y-77605220D01*
X174306610Y-77512287D01*
X174326487Y-77497846D01*
X174472213Y-77391970D01*
X174472219Y-77391966D01*
X174616966Y-77247219D01*
X174737287Y-77081610D01*
X174830220Y-76899219D01*
X174893477Y-76704534D01*
X174906962Y-76619396D01*
X174925500Y-76502355D01*
X174925500Y-76297644D01*
X174893478Y-76095470D01*
X174890161Y-76085261D01*
X174830220Y-75900781D01*
X174737287Y-75718390D01*
X174737285Y-75718386D01*
X174616970Y-75552786D01*
X174616968Y-75552784D01*
X174616966Y-75552781D01*
X174472219Y-75408034D01*
X174472215Y-75408031D01*
X174472213Y-75408029D01*
X174306613Y-75287714D01*
X174306609Y-75287712D01*
X174124218Y-75194779D01*
X174120757Y-75193655D01*
X174071257Y-75157691D01*
X174052349Y-75099501D01*
X174071256Y-75041310D01*
X174120755Y-75005346D01*
X174151349Y-75000500D01*
X174313954Y-75000500D01*
X174319933Y-75000681D01*
X174612242Y-75018367D01*
X174624108Y-75019808D01*
X174909214Y-75072059D01*
X174920815Y-75074918D01*
X175197546Y-75161155D01*
X175208720Y-75165393D01*
X175473049Y-75284362D01*
X175483622Y-75289912D01*
X175627067Y-75376629D01*
X175731671Y-75439866D01*
X175741510Y-75446657D01*
X175969681Y-75625421D01*
X175978629Y-75633349D01*
X176183576Y-75838300D01*
X176191504Y-75847248D01*
X176370264Y-76075422D01*
X176377055Y-76085261D01*
X176527006Y-76333313D01*
X176532561Y-76343898D01*
X176651521Y-76608217D01*
X176655760Y-76619396D01*
X176721039Y-76828888D01*
X176741989Y-76896118D01*
X176744850Y-76907725D01*
X176797096Y-77192831D01*
X176798537Y-77204699D01*
X176816269Y-77497846D01*
X176816450Y-77503823D01*
X176816450Y-96626460D01*
X176816198Y-96633523D01*
X176801692Y-96836333D01*
X176799682Y-96850314D01*
X176757215Y-97045531D01*
X176753235Y-97059085D01*
X176683416Y-97246271D01*
X176677548Y-97259119D01*
X176581803Y-97434461D01*
X176574166Y-97446344D01*
X176454441Y-97606275D01*
X176445190Y-97616951D01*
X176303921Y-97758215D01*
X176293247Y-97767464D01*
X176133312Y-97887187D01*
X176121428Y-97894824D01*
X175946085Y-97990564D01*
X175933236Y-97996432D01*
X175746046Y-98066246D01*
X175732493Y-98070225D01*
X175537279Y-98112687D01*
X175523297Y-98114697D01*
X175319791Y-98129247D01*
X175312730Y-98129499D01*
X175257440Y-98129498D01*
X175251070Y-98129498D01*
X175251069Y-98129498D01*
X175244187Y-98129498D01*
X175244159Y-98129500D01*
X118755841Y-98129500D01*
X118755812Y-98129498D01*
X118748930Y-98129498D01*
X118742682Y-98129498D01*
X118686572Y-98129499D01*
X118679511Y-98129247D01*
X118476695Y-98114746D01*
X118462713Y-98112736D01*
X118267491Y-98070273D01*
X118253938Y-98066294D01*
X118066742Y-97996478D01*
X118053893Y-97990610D01*
X117878541Y-97894864D01*
X117866658Y-97887227D01*
X117706723Y-97767505D01*
X117696053Y-97758261D01*
X117554763Y-97616975D01*
X117545521Y-97606308D01*
X117447397Y-97475232D01*
X117425791Y-97446369D01*
X117418156Y-97434490D01*
X117322404Y-97259137D01*
X117316536Y-97246289D01*
X117316529Y-97246271D01*
X117246713Y-97059090D01*
X117242735Y-97045539D01*
X117242733Y-97045531D01*
X117200268Y-96850324D01*
X117198258Y-96836346D01*
X117183802Y-96634221D01*
X117183550Y-96627159D01*
X117183550Y-96499996D01*
X117964417Y-96499996D01*
X117964417Y-96500003D01*
X117984698Y-96705929D01*
X117984699Y-96705934D01*
X118044768Y-96903954D01*
X118142316Y-97086452D01*
X118273476Y-97246271D01*
X118273590Y-97246410D01*
X118273595Y-97246414D01*
X118433547Y-97377683D01*
X118433548Y-97377683D01*
X118433550Y-97377685D01*
X118616046Y-97475232D01*
X118753997Y-97517078D01*
X118814065Y-97535300D01*
X118814070Y-97535301D01*
X119019997Y-97555583D01*
X119020000Y-97555583D01*
X119020003Y-97555583D01*
X119225929Y-97535301D01*
X119225934Y-97535300D01*
X119268206Y-97522477D01*
X119423954Y-97475232D01*
X119606450Y-97377685D01*
X119766410Y-97246410D01*
X119897685Y-97086450D01*
X119995232Y-96903954D01*
X120055300Y-96705934D01*
X120055301Y-96705929D01*
X120075583Y-96500003D01*
X120075583Y-96499996D01*
X120055301Y-96294070D01*
X120055300Y-96294065D01*
X120019548Y-96176207D01*
X119995232Y-96096046D01*
X119897685Y-95913550D01*
X119766410Y-95753590D01*
X119766404Y-95753585D01*
X119606452Y-95622316D01*
X119574434Y-95605202D01*
X120410000Y-95605202D01*
X120410000Y-96299999D01*
X120410001Y-96300000D01*
X121098120Y-96300000D01*
X121094075Y-96307007D01*
X121060000Y-96434174D01*
X121060000Y-96565826D01*
X121094075Y-96692993D01*
X121098120Y-96700000D01*
X120410002Y-96700000D01*
X120410001Y-96700001D01*
X120410001Y-97394791D01*
X120412909Y-97419874D01*
X120458213Y-97522477D01*
X120537522Y-97601786D01*
X120640127Y-97647090D01*
X120665203Y-97649999D01*
X121359998Y-97649999D01*
X121360000Y-97649998D01*
X121360000Y-96961879D01*
X121367007Y-96965925D01*
X121494174Y-97000000D01*
X121625826Y-97000000D01*
X121752993Y-96965925D01*
X121760000Y-96961879D01*
X121760000Y-97649998D01*
X121760001Y-97649999D01*
X122454790Y-97649999D01*
X122454791Y-97649998D01*
X122479874Y-97647090D01*
X122582477Y-97601786D01*
X122661786Y-97522477D01*
X122707090Y-97419872D01*
X122709999Y-97394797D01*
X122710000Y-97394795D01*
X122710000Y-96700001D01*
X122709999Y-96700000D01*
X122021880Y-96700000D01*
X122025925Y-96692993D01*
X122060000Y-96565826D01*
X122060000Y-96434174D01*
X122025925Y-96307007D01*
X122021880Y-96300000D01*
X122709998Y-96300000D01*
X122709999Y-96299999D01*
X122709999Y-95605210D01*
X122709998Y-95605208D01*
X122707090Y-95580125D01*
X122661786Y-95477522D01*
X122582477Y-95398213D01*
X122479872Y-95352909D01*
X122454797Y-95350000D01*
X121760001Y-95350000D01*
X121760000Y-95350001D01*
X121760000Y-96038120D01*
X121752993Y-96034075D01*
X121625826Y-96000000D01*
X121494174Y-96000000D01*
X121367007Y-96034075D01*
X121360000Y-96038120D01*
X121360000Y-95350001D01*
X121359999Y-95350000D01*
X120665210Y-95350000D01*
X120665207Y-95350001D01*
X120640125Y-95352909D01*
X120537522Y-95398213D01*
X120458213Y-95477522D01*
X120412909Y-95580127D01*
X120410000Y-95605202D01*
X119574434Y-95605202D01*
X119423954Y-95524768D01*
X119225934Y-95464699D01*
X119225929Y-95464698D01*
X119020003Y-95444417D01*
X119019997Y-95444417D01*
X118814070Y-95464698D01*
X118814065Y-95464699D01*
X118616045Y-95524768D01*
X118433547Y-95622316D01*
X118273595Y-95753585D01*
X118273585Y-95753595D01*
X118142316Y-95913547D01*
X118044768Y-96096045D01*
X117984699Y-96294065D01*
X117984698Y-96294070D01*
X117964417Y-96499996D01*
X117183550Y-96499996D01*
X117183550Y-93626082D01*
X117202457Y-93567891D01*
X117251957Y-93531927D01*
X117313143Y-93531927D01*
X117352551Y-93556076D01*
X117386985Y-93590510D01*
X117386987Y-93590511D01*
X117386989Y-93590513D01*
X117512511Y-93662983D01*
X117512512Y-93662983D01*
X117512515Y-93662985D01*
X117652525Y-93700501D01*
X117652526Y-93700501D01*
X117797474Y-93700501D01*
X117797475Y-93700501D01*
X117937485Y-93662985D01*
X117937487Y-93662983D01*
X117937489Y-93662983D01*
X118063010Y-93590513D01*
X118063010Y-93590512D01*
X118063015Y-93590510D01*
X118165509Y-93488016D01*
X118181713Y-93459950D01*
X118237982Y-93362490D01*
X118237982Y-93362488D01*
X118237984Y-93362486D01*
X118275500Y-93222476D01*
X118275500Y-93077526D01*
X118237984Y-92937516D01*
X118237982Y-92937513D01*
X118237982Y-92937511D01*
X118165512Y-92811990D01*
X118165510Y-92811988D01*
X118165509Y-92811986D01*
X118063015Y-92709492D01*
X118063012Y-92709490D01*
X118063010Y-92709488D01*
X117937488Y-92637018D01*
X117937489Y-92637018D01*
X117907896Y-92629088D01*
X117797475Y-92599501D01*
X117652525Y-92599501D01*
X117590790Y-92616042D01*
X117512510Y-92637018D01*
X117386989Y-92709488D01*
X117386988Y-92709489D01*
X117386985Y-92709491D01*
X117386985Y-92709492D01*
X117352551Y-92743925D01*
X117298037Y-92771701D01*
X117237605Y-92762130D01*
X117194340Y-92718865D01*
X117183550Y-92673920D01*
X117183550Y-89926080D01*
X117202457Y-89867889D01*
X117251957Y-89831925D01*
X117313143Y-89831925D01*
X117352551Y-89856074D01*
X117386985Y-89890508D01*
X117386987Y-89890509D01*
X117386989Y-89890511D01*
X117512511Y-89962981D01*
X117512512Y-89962981D01*
X117512515Y-89962983D01*
X117652525Y-90000499D01*
X117652526Y-90000499D01*
X117797474Y-90000499D01*
X117797475Y-90000499D01*
X117937485Y-89962983D01*
X117937487Y-89962981D01*
X117937489Y-89962981D01*
X118063010Y-89890511D01*
X118063010Y-89890510D01*
X118063015Y-89890508D01*
X118165509Y-89788014D01*
X118165512Y-89788009D01*
X118237982Y-89662488D01*
X118237982Y-89662486D01*
X118237984Y-89662484D01*
X118275500Y-89522474D01*
X118275500Y-89377524D01*
X118237984Y-89237514D01*
X118237982Y-89237511D01*
X118237982Y-89237509D01*
X118165512Y-89111988D01*
X118165510Y-89111986D01*
X118165509Y-89111984D01*
X118063015Y-89009490D01*
X118063012Y-89009488D01*
X118063010Y-89009486D01*
X117937488Y-88937016D01*
X117937489Y-88937016D01*
X117805420Y-88901628D01*
X117797475Y-88899499D01*
X117652525Y-88899499D01*
X117644580Y-88901628D01*
X117512510Y-88937016D01*
X117386989Y-89009486D01*
X117386988Y-89009487D01*
X117386985Y-89009489D01*
X117386985Y-89009490D01*
X117352551Y-89043923D01*
X117298037Y-89071699D01*
X117237605Y-89062128D01*
X117194340Y-89018863D01*
X117183550Y-88973918D01*
X117183550Y-87976081D01*
X117202457Y-87917890D01*
X117251957Y-87881926D01*
X117313143Y-87881926D01*
X117352551Y-87906075D01*
X117386985Y-87940509D01*
X117386987Y-87940510D01*
X117386989Y-87940512D01*
X117512511Y-88012982D01*
X117512512Y-88012982D01*
X117512515Y-88012984D01*
X117652525Y-88050500D01*
X117652526Y-88050500D01*
X117797474Y-88050500D01*
X117797475Y-88050500D01*
X117937485Y-88012984D01*
X117937487Y-88012982D01*
X117937489Y-88012982D01*
X118063010Y-87940512D01*
X118063010Y-87940511D01*
X118063015Y-87940509D01*
X118165509Y-87838015D01*
X118165512Y-87838010D01*
X118237982Y-87712489D01*
X118237982Y-87712487D01*
X118237984Y-87712485D01*
X118275500Y-87572475D01*
X118275500Y-87427525D01*
X118237984Y-87287515D01*
X118237982Y-87287512D01*
X118237982Y-87287510D01*
X118165512Y-87161989D01*
X118165510Y-87161987D01*
X118165509Y-87161985D01*
X118063015Y-87059491D01*
X118063012Y-87059489D01*
X118063010Y-87059487D01*
X117937488Y-86987017D01*
X117937489Y-86987017D01*
X117897299Y-86976248D01*
X117797475Y-86949500D01*
X117652525Y-86949500D01*
X117590790Y-86966041D01*
X117512510Y-86987017D01*
X117386989Y-87059487D01*
X117386988Y-87059488D01*
X117386985Y-87059490D01*
X117386985Y-87059491D01*
X117352551Y-87093924D01*
X117298037Y-87121700D01*
X117237605Y-87112129D01*
X117194340Y-87068864D01*
X117183550Y-87023919D01*
X117183550Y-84276079D01*
X117202457Y-84217888D01*
X117251957Y-84181924D01*
X117313143Y-84181924D01*
X117352551Y-84206073D01*
X117386985Y-84240507D01*
X117386987Y-84240508D01*
X117386989Y-84240510D01*
X117512511Y-84312980D01*
X117512512Y-84312980D01*
X117512515Y-84312982D01*
X117652525Y-84350498D01*
X117652526Y-84350498D01*
X117797474Y-84350498D01*
X117797475Y-84350498D01*
X117937485Y-84312982D01*
X117937487Y-84312980D01*
X117937489Y-84312980D01*
X118063010Y-84240510D01*
X118063010Y-84240509D01*
X118063015Y-84240507D01*
X118165509Y-84138013D01*
X118199322Y-84079448D01*
X118237982Y-84012487D01*
X118237982Y-84012485D01*
X118237984Y-84012483D01*
X118275500Y-83872473D01*
X118275500Y-83727523D01*
X118237984Y-83587513D01*
X118237982Y-83587510D01*
X118237982Y-83587508D01*
X118165512Y-83461987D01*
X118165510Y-83461985D01*
X118165509Y-83461983D01*
X118063015Y-83359489D01*
X118063012Y-83359487D01*
X118063010Y-83359485D01*
X117937488Y-83287015D01*
X117937489Y-83287015D01*
X117907896Y-83279085D01*
X117797475Y-83249498D01*
X117652525Y-83249498D01*
X117590790Y-83266039D01*
X117512510Y-83287015D01*
X117386989Y-83359485D01*
X117386988Y-83359486D01*
X117386985Y-83359488D01*
X117386985Y-83359489D01*
X117352551Y-83393922D01*
X117298037Y-83421698D01*
X117237605Y-83412127D01*
X117194340Y-83368862D01*
X117183550Y-83323917D01*
X117183550Y-82376081D01*
X117202457Y-82317890D01*
X117251957Y-82281926D01*
X117313143Y-82281926D01*
X117352551Y-82306075D01*
X117386985Y-82340509D01*
X117386987Y-82340510D01*
X117386989Y-82340512D01*
X117512511Y-82412982D01*
X117512512Y-82412982D01*
X117512515Y-82412984D01*
X117652525Y-82450500D01*
X117652526Y-82450500D01*
X117797474Y-82450500D01*
X117797475Y-82450500D01*
X117937485Y-82412984D01*
X117937487Y-82412982D01*
X117937489Y-82412982D01*
X118063010Y-82340512D01*
X118063010Y-82340511D01*
X118063015Y-82340509D01*
X118165509Y-82238015D01*
X118237984Y-82112485D01*
X118275500Y-81972475D01*
X118275500Y-81827525D01*
X118237984Y-81687515D01*
X118237982Y-81687512D01*
X118237982Y-81687510D01*
X118165512Y-81561989D01*
X118165510Y-81561987D01*
X118165509Y-81561985D01*
X118063015Y-81459491D01*
X118063012Y-81459489D01*
X118063010Y-81459487D01*
X117937488Y-81387017D01*
X117937489Y-81387017D01*
X117907896Y-81379087D01*
X117797475Y-81349500D01*
X117652525Y-81349500D01*
X117590790Y-81366041D01*
X117512510Y-81387017D01*
X117386989Y-81459487D01*
X117386988Y-81459488D01*
X117386985Y-81459490D01*
X117386985Y-81459491D01*
X117352551Y-81493924D01*
X117298037Y-81521700D01*
X117237605Y-81512129D01*
X117194340Y-81468864D01*
X117183550Y-81423919D01*
X117183550Y-78676079D01*
X117202457Y-78617888D01*
X117251957Y-78581924D01*
X117313143Y-78581924D01*
X117352551Y-78606073D01*
X117386985Y-78640507D01*
X117386987Y-78640508D01*
X117386989Y-78640510D01*
X117512511Y-78712980D01*
X117512512Y-78712980D01*
X117512515Y-78712982D01*
X117652525Y-78750498D01*
X117652526Y-78750498D01*
X117797474Y-78750498D01*
X117797475Y-78750498D01*
X117937485Y-78712982D01*
X117937487Y-78712980D01*
X117937489Y-78712980D01*
X117959976Y-78699997D01*
X119494353Y-78699997D01*
X119494353Y-78700002D01*
X119514834Y-78842456D01*
X119553275Y-78926628D01*
X119574623Y-78973373D01*
X119647556Y-79057543D01*
X119668873Y-79082144D01*
X119789942Y-79159950D01*
X119789947Y-79159953D01*
X119859448Y-79180360D01*
X119928035Y-79200499D01*
X119928036Y-79200499D01*
X119928039Y-79200500D01*
X119928041Y-79200500D01*
X120071959Y-79200500D01*
X120071961Y-79200500D01*
X120210053Y-79159953D01*
X120331128Y-79082143D01*
X120425377Y-78973373D01*
X120485165Y-78842457D01*
X120499889Y-78740046D01*
X120505647Y-78700002D01*
X120505647Y-78699997D01*
X120485165Y-78557543D01*
X120476246Y-78538013D01*
X120425377Y-78426627D01*
X120331128Y-78317857D01*
X120331127Y-78317856D01*
X120331126Y-78317855D01*
X120210057Y-78240049D01*
X120210054Y-78240047D01*
X120210053Y-78240047D01*
X120210050Y-78240046D01*
X120071964Y-78199500D01*
X120071961Y-78199500D01*
X119928039Y-78199500D01*
X119928035Y-78199500D01*
X119789949Y-78240046D01*
X119789942Y-78240049D01*
X119668873Y-78317855D01*
X119574622Y-78426628D01*
X119514834Y-78557543D01*
X119494353Y-78699997D01*
X117959976Y-78699997D01*
X118063010Y-78640510D01*
X118063010Y-78640509D01*
X118063015Y-78640507D01*
X118165509Y-78538013D01*
X118165512Y-78538008D01*
X118237982Y-78412487D01*
X118237982Y-78412485D01*
X118237984Y-78412483D01*
X118275500Y-78272473D01*
X118275500Y-78127523D01*
X118237984Y-77987513D01*
X118237982Y-77987510D01*
X118237982Y-77987508D01*
X118165512Y-77861987D01*
X118165510Y-77861985D01*
X118165509Y-77861983D01*
X118063015Y-77759489D01*
X118063012Y-77759487D01*
X118063010Y-77759485D01*
X117937488Y-77687015D01*
X117937489Y-77687015D01*
X117907896Y-77679085D01*
X117797475Y-77649498D01*
X117652525Y-77649498D01*
X117599672Y-77663660D01*
X117512510Y-77687015D01*
X117386989Y-77759485D01*
X117386988Y-77759486D01*
X117386985Y-77759488D01*
X117386985Y-77759489D01*
X117352551Y-77793922D01*
X117298037Y-77821698D01*
X117237605Y-77812127D01*
X117194340Y-77768862D01*
X117183550Y-77723917D01*
X117183550Y-77502984D01*
X117183731Y-77497007D01*
X117190085Y-77391966D01*
X117201412Y-77204685D01*
X117202852Y-77192831D01*
X117255104Y-76907697D01*
X117257959Y-76896118D01*
X117344197Y-76619365D01*
X117348434Y-76608196D01*
X117467397Y-76343865D01*
X117472947Y-76333293D01*
X117496404Y-76294491D01*
X117512982Y-76267066D01*
X117622906Y-76085229D01*
X117629690Y-76075398D01*
X117808460Y-75847211D01*
X117816373Y-75838279D01*
X118021346Y-75633303D01*
X118030276Y-75625391D01*
X118258468Y-75446610D01*
X118268293Y-75439829D01*
X118516361Y-75289864D01*
X118526920Y-75284321D01*
X118588802Y-75256469D01*
X118649624Y-75249829D01*
X118702735Y-75280207D01*
X118727847Y-75336002D01*
X118719486Y-75387874D01*
X118664833Y-75507545D01*
X118644353Y-75649997D01*
X118644353Y-75650002D01*
X118664834Y-75792456D01*
X118715436Y-75903256D01*
X118724623Y-75923373D01*
X118749608Y-75952207D01*
X118818873Y-76032144D01*
X118917411Y-76095470D01*
X118939947Y-76109953D01*
X119012332Y-76131207D01*
X119054444Y-76156192D01*
X120745504Y-77847252D01*
X120773281Y-77901769D01*
X120774500Y-77917256D01*
X120774500Y-79180360D01*
X120765553Y-79221487D01*
X120714836Y-79332539D01*
X120712842Y-79339332D01*
X120710941Y-79338774D01*
X120688170Y-79385066D01*
X120687191Y-79386059D01*
X120613737Y-79459514D01*
X120534514Y-79538737D01*
X120478498Y-79635758D01*
X120478497Y-79635763D01*
X120453721Y-79728231D01*
X120449500Y-79743983D01*
X120449500Y-83812625D01*
X120430593Y-83870816D01*
X120381093Y-83906780D01*
X120319907Y-83906780D01*
X120296977Y-83895909D01*
X120210057Y-83840049D01*
X120210054Y-83840047D01*
X120210053Y-83840047D01*
X120210050Y-83840046D01*
X120071964Y-83799500D01*
X120071961Y-83799500D01*
X119928039Y-83799500D01*
X119928035Y-83799500D01*
X119789949Y-83840046D01*
X119789942Y-83840049D01*
X119668873Y-83917855D01*
X119574622Y-84026628D01*
X119514834Y-84157543D01*
X119494353Y-84299997D01*
X119494353Y-84300002D01*
X119514834Y-84442456D01*
X119559376Y-84539987D01*
X119574623Y-84573373D01*
X119668872Y-84682143D01*
X119668873Y-84682144D01*
X119789942Y-84759950D01*
X119789947Y-84759953D01*
X119896403Y-84791211D01*
X119928035Y-84800499D01*
X119928036Y-84800499D01*
X119928039Y-84800500D01*
X119928041Y-84800500D01*
X120071959Y-84800500D01*
X120071961Y-84800500D01*
X120210053Y-84759953D01*
X120296978Y-84704089D01*
X120356151Y-84688535D01*
X120413168Y-84710734D01*
X120446247Y-84762206D01*
X120449500Y-84787374D01*
X120449500Y-89412625D01*
X120430593Y-89470816D01*
X120381093Y-89506780D01*
X120319907Y-89506780D01*
X120296977Y-89495909D01*
X120210057Y-89440049D01*
X120210054Y-89440047D01*
X120210053Y-89440047D01*
X120210050Y-89440046D01*
X120071964Y-89399500D01*
X120071961Y-89399500D01*
X119928039Y-89399500D01*
X119928035Y-89399500D01*
X119789949Y-89440046D01*
X119789942Y-89440049D01*
X119668873Y-89517855D01*
X119574622Y-89626628D01*
X119514834Y-89757543D01*
X119494353Y-89899997D01*
X119494353Y-89900002D01*
X119514834Y-90042456D01*
X119574622Y-90173371D01*
X119574623Y-90173373D01*
X119668872Y-90282143D01*
X119668873Y-90282144D01*
X119789942Y-90359950D01*
X119789947Y-90359953D01*
X119896403Y-90391211D01*
X119928035Y-90400499D01*
X119928036Y-90400499D01*
X119928039Y-90400500D01*
X119928041Y-90400500D01*
X120071959Y-90400500D01*
X120071961Y-90400500D01*
X120210053Y-90359953D01*
X120296978Y-90304089D01*
X120356151Y-90288535D01*
X120413168Y-90310734D01*
X120446247Y-90362206D01*
X120449500Y-90387374D01*
X120449500Y-92018982D01*
X120449500Y-92131018D01*
X120475072Y-92226455D01*
X120478498Y-92239241D01*
X120534513Y-92336260D01*
X120534515Y-92336263D01*
X120917117Y-92718865D01*
X121287190Y-93088938D01*
X121311236Y-93136132D01*
X121312839Y-93135662D01*
X121314833Y-93142455D01*
X121366803Y-93256250D01*
X121374623Y-93273373D01*
X121451839Y-93362486D01*
X121468873Y-93382144D01*
X121589942Y-93459950D01*
X121589947Y-93459953D01*
X121626939Y-93470814D01*
X121669052Y-93495800D01*
X123602943Y-95429691D01*
X123630720Y-95484208D01*
X123621149Y-95544640D01*
X123579609Y-95587004D01*
X123513553Y-95622313D01*
X123513552Y-95622313D01*
X123353595Y-95753585D01*
X123353585Y-95753595D01*
X123222316Y-95913547D01*
X123124768Y-96096045D01*
X123064699Y-96294065D01*
X123064698Y-96294070D01*
X123044417Y-96499996D01*
X123044417Y-96500003D01*
X123064698Y-96705929D01*
X123064699Y-96705934D01*
X123124768Y-96903954D01*
X123222316Y-97086452D01*
X123353476Y-97246271D01*
X123353590Y-97246410D01*
X123353595Y-97246414D01*
X123513547Y-97377683D01*
X123513548Y-97377683D01*
X123513550Y-97377685D01*
X123696046Y-97475232D01*
X123833997Y-97517078D01*
X123894065Y-97535300D01*
X123894070Y-97535301D01*
X124099997Y-97555583D01*
X124100000Y-97555583D01*
X124100003Y-97555583D01*
X124305929Y-97535301D01*
X124305934Y-97535300D01*
X124348206Y-97522477D01*
X124503954Y-97475232D01*
X124686450Y-97377685D01*
X124846410Y-97246410D01*
X124977685Y-97086450D01*
X125075232Y-96903954D01*
X125135300Y-96705934D01*
X125135301Y-96705929D01*
X125155583Y-96500003D01*
X125155583Y-96499996D01*
X125584417Y-96499996D01*
X125584417Y-96500003D01*
X125604698Y-96705929D01*
X125604699Y-96705934D01*
X125664768Y-96903954D01*
X125762316Y-97086452D01*
X125893476Y-97246271D01*
X125893590Y-97246410D01*
X125893595Y-97246414D01*
X126053547Y-97377683D01*
X126053548Y-97377683D01*
X126053550Y-97377685D01*
X126236046Y-97475232D01*
X126373997Y-97517078D01*
X126434065Y-97535300D01*
X126434070Y-97535301D01*
X126639997Y-97555583D01*
X126640000Y-97555583D01*
X126640003Y-97555583D01*
X126845929Y-97535301D01*
X126845934Y-97535300D01*
X126888206Y-97522477D01*
X127043954Y-97475232D01*
X127226450Y-97377685D01*
X127386410Y-97246410D01*
X127517685Y-97086450D01*
X127615232Y-96903954D01*
X127675300Y-96705934D01*
X127675301Y-96705929D01*
X127695583Y-96500003D01*
X127695583Y-96499996D01*
X128124417Y-96499996D01*
X128124417Y-96500003D01*
X128144698Y-96705929D01*
X128144699Y-96705934D01*
X128204768Y-96903954D01*
X128302316Y-97086452D01*
X128433476Y-97246271D01*
X128433590Y-97246410D01*
X128433595Y-97246414D01*
X128593547Y-97377683D01*
X128593548Y-97377683D01*
X128593550Y-97377685D01*
X128776046Y-97475232D01*
X128913997Y-97517078D01*
X128974065Y-97535300D01*
X128974070Y-97535301D01*
X129179997Y-97555583D01*
X129180000Y-97555583D01*
X129180003Y-97555583D01*
X129385929Y-97535301D01*
X129385934Y-97535300D01*
X129428206Y-97522477D01*
X129583954Y-97475232D01*
X129766450Y-97377685D01*
X129926410Y-97246410D01*
X130057685Y-97086450D01*
X130155232Y-96903954D01*
X130215300Y-96705934D01*
X130215301Y-96705929D01*
X130235583Y-96500003D01*
X130235583Y-96499996D01*
X130664417Y-96499996D01*
X130664417Y-96500003D01*
X130684698Y-96705929D01*
X130684699Y-96705934D01*
X130744768Y-96903954D01*
X130842316Y-97086452D01*
X130973476Y-97246271D01*
X130973590Y-97246410D01*
X130973595Y-97246414D01*
X131133547Y-97377683D01*
X131133548Y-97377683D01*
X131133550Y-97377685D01*
X131316046Y-97475232D01*
X131453997Y-97517078D01*
X131514065Y-97535300D01*
X131514070Y-97535301D01*
X131719997Y-97555583D01*
X131720000Y-97555583D01*
X131720003Y-97555583D01*
X131925929Y-97535301D01*
X131925934Y-97535300D01*
X131968206Y-97522477D01*
X132123954Y-97475232D01*
X132306450Y-97377685D01*
X132466410Y-97246410D01*
X132597685Y-97086450D01*
X132695232Y-96903954D01*
X132755300Y-96705934D01*
X132755301Y-96705929D01*
X132775583Y-96500003D01*
X132775583Y-96499996D01*
X133204417Y-96499996D01*
X133204417Y-96500003D01*
X133224698Y-96705929D01*
X133224699Y-96705934D01*
X133284768Y-96903954D01*
X133382316Y-97086452D01*
X133513476Y-97246271D01*
X133513590Y-97246410D01*
X133513595Y-97246414D01*
X133673547Y-97377683D01*
X133673548Y-97377683D01*
X133673550Y-97377685D01*
X133856046Y-97475232D01*
X133993997Y-97517078D01*
X134054065Y-97535300D01*
X134054070Y-97535301D01*
X134259997Y-97555583D01*
X134260000Y-97555583D01*
X134260003Y-97555583D01*
X134465929Y-97535301D01*
X134465934Y-97535300D01*
X134508206Y-97522477D01*
X134663954Y-97475232D01*
X134846450Y-97377685D01*
X135006410Y-97246410D01*
X135137685Y-97086450D01*
X135235232Y-96903954D01*
X135295300Y-96705934D01*
X135295301Y-96705929D01*
X135315583Y-96500003D01*
X135315583Y-96499996D01*
X135744417Y-96499996D01*
X135744417Y-96500003D01*
X135764698Y-96705929D01*
X135764699Y-96705934D01*
X135824768Y-96903954D01*
X135922316Y-97086452D01*
X136053476Y-97246271D01*
X136053590Y-97246410D01*
X136053595Y-97246414D01*
X136213547Y-97377683D01*
X136213548Y-97377683D01*
X136213550Y-97377685D01*
X136396046Y-97475232D01*
X136533997Y-97517078D01*
X136594065Y-97535300D01*
X136594070Y-97535301D01*
X136799997Y-97555583D01*
X136800000Y-97555583D01*
X136800003Y-97555583D01*
X137005929Y-97535301D01*
X137005934Y-97535300D01*
X137048206Y-97522477D01*
X137203954Y-97475232D01*
X137386450Y-97377685D01*
X137546410Y-97246410D01*
X137677685Y-97086450D01*
X137775232Y-96903954D01*
X137835300Y-96705934D01*
X137835301Y-96705929D01*
X137855583Y-96500003D01*
X137855583Y-96499996D01*
X138284417Y-96499996D01*
X138284417Y-96500003D01*
X138304698Y-96705929D01*
X138304699Y-96705934D01*
X138364768Y-96903954D01*
X138462316Y-97086452D01*
X138593476Y-97246271D01*
X138593590Y-97246410D01*
X138593595Y-97246414D01*
X138753547Y-97377683D01*
X138753548Y-97377683D01*
X138753550Y-97377685D01*
X138936046Y-97475232D01*
X139073997Y-97517078D01*
X139134065Y-97535300D01*
X139134070Y-97535301D01*
X139339997Y-97555583D01*
X139340000Y-97555583D01*
X139340003Y-97555583D01*
X139545929Y-97535301D01*
X139545934Y-97535300D01*
X139588206Y-97522477D01*
X139743954Y-97475232D01*
X139926450Y-97377685D01*
X140086410Y-97246410D01*
X140217685Y-97086450D01*
X140315232Y-96903954D01*
X140375300Y-96705934D01*
X140375301Y-96705929D01*
X140395583Y-96500003D01*
X140395583Y-96499996D01*
X140824417Y-96499996D01*
X140824417Y-96500003D01*
X140844698Y-96705929D01*
X140844699Y-96705934D01*
X140904768Y-96903954D01*
X141002316Y-97086452D01*
X141133476Y-97246271D01*
X141133590Y-97246410D01*
X141133595Y-97246414D01*
X141293547Y-97377683D01*
X141293548Y-97377683D01*
X141293550Y-97377685D01*
X141476046Y-97475232D01*
X141613997Y-97517078D01*
X141674065Y-97535300D01*
X141674070Y-97535301D01*
X141879997Y-97555583D01*
X141880000Y-97555583D01*
X141880003Y-97555583D01*
X142085929Y-97535301D01*
X142085934Y-97535300D01*
X142128206Y-97522477D01*
X142283954Y-97475232D01*
X142466450Y-97377685D01*
X142626410Y-97246410D01*
X142757685Y-97086450D01*
X142855232Y-96903954D01*
X142915300Y-96705934D01*
X142915301Y-96705929D01*
X142935583Y-96500003D01*
X142935583Y-96499996D01*
X143364417Y-96499996D01*
X143364417Y-96500003D01*
X143384698Y-96705929D01*
X143384699Y-96705934D01*
X143444768Y-96903954D01*
X143542316Y-97086452D01*
X143673476Y-97246271D01*
X143673590Y-97246410D01*
X143673595Y-97246414D01*
X143833547Y-97377683D01*
X143833548Y-97377683D01*
X143833550Y-97377685D01*
X144016046Y-97475232D01*
X144153997Y-97517078D01*
X144214065Y-97535300D01*
X144214070Y-97535301D01*
X144419997Y-97555583D01*
X144420000Y-97555583D01*
X144420003Y-97555583D01*
X144625929Y-97535301D01*
X144625934Y-97535300D01*
X144668206Y-97522477D01*
X144823954Y-97475232D01*
X145006450Y-97377685D01*
X145166410Y-97246410D01*
X145297685Y-97086450D01*
X145395232Y-96903954D01*
X145455300Y-96705934D01*
X145455301Y-96705929D01*
X145475583Y-96500003D01*
X145475583Y-96499996D01*
X145455301Y-96294070D01*
X145455300Y-96294065D01*
X145419548Y-96176207D01*
X145395232Y-96096046D01*
X145297685Y-95913550D01*
X145166410Y-95753590D01*
X145166404Y-95753585D01*
X145006452Y-95622316D01*
X144974434Y-95605202D01*
X145810000Y-95605202D01*
X145810000Y-96299999D01*
X145810001Y-96300000D01*
X146498120Y-96300000D01*
X146494075Y-96307007D01*
X146460000Y-96434174D01*
X146460000Y-96565826D01*
X146494075Y-96692993D01*
X146498120Y-96700000D01*
X145810002Y-96700000D01*
X145810001Y-96700001D01*
X145810001Y-97394791D01*
X145812909Y-97419874D01*
X145858213Y-97522477D01*
X145937522Y-97601786D01*
X146040127Y-97647090D01*
X146065203Y-97649999D01*
X146759998Y-97649999D01*
X146760000Y-97649998D01*
X146760000Y-96961879D01*
X146767007Y-96965925D01*
X146894174Y-97000000D01*
X147025826Y-97000000D01*
X147152993Y-96965925D01*
X147160000Y-96961879D01*
X147160000Y-97649998D01*
X147160001Y-97649999D01*
X147854790Y-97649999D01*
X147854791Y-97649998D01*
X147879874Y-97647090D01*
X147982477Y-97601786D01*
X148061786Y-97522477D01*
X148107090Y-97419872D01*
X148109999Y-97394797D01*
X148110000Y-97394795D01*
X148110000Y-96700001D01*
X148109999Y-96700000D01*
X147421880Y-96700000D01*
X147425925Y-96692993D01*
X147460000Y-96565826D01*
X147460000Y-96499996D01*
X148444417Y-96499996D01*
X148444417Y-96500003D01*
X148464698Y-96705929D01*
X148464699Y-96705934D01*
X148524768Y-96903954D01*
X148622316Y-97086452D01*
X148753476Y-97246271D01*
X148753590Y-97246410D01*
X148753595Y-97246414D01*
X148913547Y-97377683D01*
X148913548Y-97377683D01*
X148913550Y-97377685D01*
X149096046Y-97475232D01*
X149233997Y-97517078D01*
X149294065Y-97535300D01*
X149294070Y-97535301D01*
X149499997Y-97555583D01*
X149500000Y-97555583D01*
X149500003Y-97555583D01*
X149705929Y-97535301D01*
X149705934Y-97535300D01*
X149748206Y-97522477D01*
X149903954Y-97475232D01*
X150086450Y-97377685D01*
X150246410Y-97246410D01*
X150377685Y-97086450D01*
X150475232Y-96903954D01*
X150535300Y-96705934D01*
X150535301Y-96705929D01*
X150555583Y-96500003D01*
X150555583Y-96499996D01*
X150984417Y-96499996D01*
X150984417Y-96500003D01*
X151004698Y-96705929D01*
X151004699Y-96705934D01*
X151064768Y-96903954D01*
X151162316Y-97086452D01*
X151293476Y-97246271D01*
X151293590Y-97246410D01*
X151293595Y-97246414D01*
X151453547Y-97377683D01*
X151453548Y-97377683D01*
X151453550Y-97377685D01*
X151636046Y-97475232D01*
X151773997Y-97517078D01*
X151834065Y-97535300D01*
X151834070Y-97535301D01*
X152039997Y-97555583D01*
X152040000Y-97555583D01*
X152040003Y-97555583D01*
X152245929Y-97535301D01*
X152245934Y-97535300D01*
X152288206Y-97522477D01*
X152443954Y-97475232D01*
X152626450Y-97377685D01*
X152786410Y-97246410D01*
X152917685Y-97086450D01*
X153015232Y-96903954D01*
X153075300Y-96705934D01*
X153075301Y-96705929D01*
X153095583Y-96500003D01*
X153095583Y-96499996D01*
X153524417Y-96499996D01*
X153524417Y-96500003D01*
X153544698Y-96705929D01*
X153544699Y-96705934D01*
X153604768Y-96903954D01*
X153702316Y-97086452D01*
X153833476Y-97246271D01*
X153833590Y-97246410D01*
X153833595Y-97246414D01*
X153993547Y-97377683D01*
X153993548Y-97377683D01*
X153993550Y-97377685D01*
X154176046Y-97475232D01*
X154313997Y-97517078D01*
X154374065Y-97535300D01*
X154374070Y-97535301D01*
X154579997Y-97555583D01*
X154580000Y-97555583D01*
X154580003Y-97555583D01*
X154785929Y-97535301D01*
X154785934Y-97535300D01*
X154828206Y-97522477D01*
X154983954Y-97475232D01*
X155166450Y-97377685D01*
X155326410Y-97246410D01*
X155457685Y-97086450D01*
X155555232Y-96903954D01*
X155615300Y-96705934D01*
X155615301Y-96705929D01*
X155635583Y-96500003D01*
X155635583Y-96499996D01*
X156064417Y-96499996D01*
X156064417Y-96500003D01*
X156084698Y-96705929D01*
X156084699Y-96705934D01*
X156144768Y-96903954D01*
X156242316Y-97086452D01*
X156373476Y-97246271D01*
X156373590Y-97246410D01*
X156373595Y-97246414D01*
X156533547Y-97377683D01*
X156533548Y-97377683D01*
X156533550Y-97377685D01*
X156716046Y-97475232D01*
X156853997Y-97517078D01*
X156914065Y-97535300D01*
X156914070Y-97535301D01*
X157119997Y-97555583D01*
X157120000Y-97555583D01*
X157120003Y-97555583D01*
X157325929Y-97535301D01*
X157325934Y-97535300D01*
X157368206Y-97522477D01*
X157523954Y-97475232D01*
X157706450Y-97377685D01*
X157866410Y-97246410D01*
X157997685Y-97086450D01*
X158095232Y-96903954D01*
X158155300Y-96705934D01*
X158155301Y-96705929D01*
X158175583Y-96500003D01*
X158175583Y-96499996D01*
X158604417Y-96499996D01*
X158604417Y-96500003D01*
X158624698Y-96705929D01*
X158624699Y-96705934D01*
X158684768Y-96903954D01*
X158782316Y-97086452D01*
X158913476Y-97246271D01*
X158913590Y-97246410D01*
X158913595Y-97246414D01*
X159073547Y-97377683D01*
X159073548Y-97377683D01*
X159073550Y-97377685D01*
X159256046Y-97475232D01*
X159393997Y-97517078D01*
X159454065Y-97535300D01*
X159454070Y-97535301D01*
X159659997Y-97555583D01*
X159660000Y-97555583D01*
X159660003Y-97555583D01*
X159865929Y-97535301D01*
X159865934Y-97535300D01*
X159908206Y-97522477D01*
X160063954Y-97475232D01*
X160246450Y-97377685D01*
X160406410Y-97246410D01*
X160537685Y-97086450D01*
X160635232Y-96903954D01*
X160695300Y-96705934D01*
X160695301Y-96705929D01*
X160715583Y-96500003D01*
X160715583Y-96499996D01*
X161144417Y-96499996D01*
X161144417Y-96500003D01*
X161164698Y-96705929D01*
X161164699Y-96705934D01*
X161224768Y-96903954D01*
X161322316Y-97086452D01*
X161453476Y-97246271D01*
X161453590Y-97246410D01*
X161453595Y-97246414D01*
X161613547Y-97377683D01*
X161613548Y-97377683D01*
X161613550Y-97377685D01*
X161796046Y-97475232D01*
X161933997Y-97517078D01*
X161994065Y-97535300D01*
X161994070Y-97535301D01*
X162199997Y-97555583D01*
X162200000Y-97555583D01*
X162200003Y-97555583D01*
X162405929Y-97535301D01*
X162405934Y-97535300D01*
X162448206Y-97522477D01*
X162603954Y-97475232D01*
X162786450Y-97377685D01*
X162946410Y-97246410D01*
X163077685Y-97086450D01*
X163175232Y-96903954D01*
X163235300Y-96705934D01*
X163235301Y-96705929D01*
X163255583Y-96500003D01*
X163255583Y-96499996D01*
X163684417Y-96499996D01*
X163684417Y-96500003D01*
X163704698Y-96705929D01*
X163704699Y-96705934D01*
X163764768Y-96903954D01*
X163862316Y-97086452D01*
X163993476Y-97246271D01*
X163993590Y-97246410D01*
X163993595Y-97246414D01*
X164153547Y-97377683D01*
X164153548Y-97377683D01*
X164153550Y-97377685D01*
X164336046Y-97475232D01*
X164473997Y-97517078D01*
X164534065Y-97535300D01*
X164534070Y-97535301D01*
X164739997Y-97555583D01*
X164740000Y-97555583D01*
X164740003Y-97555583D01*
X164945929Y-97535301D01*
X164945934Y-97535300D01*
X164988206Y-97522477D01*
X165143954Y-97475232D01*
X165326450Y-97377685D01*
X165486410Y-97246410D01*
X165617685Y-97086450D01*
X165715232Y-96903954D01*
X165775300Y-96705934D01*
X165775301Y-96705929D01*
X165795583Y-96500003D01*
X165795583Y-96499996D01*
X166224417Y-96499996D01*
X166224417Y-96500003D01*
X166244698Y-96705929D01*
X166244699Y-96705934D01*
X166304768Y-96903954D01*
X166402316Y-97086452D01*
X166533476Y-97246271D01*
X166533590Y-97246410D01*
X166533595Y-97246414D01*
X166693547Y-97377683D01*
X166693548Y-97377683D01*
X166693550Y-97377685D01*
X166876046Y-97475232D01*
X167013997Y-97517078D01*
X167074065Y-97535300D01*
X167074070Y-97535301D01*
X167279997Y-97555583D01*
X167280000Y-97555583D01*
X167280003Y-97555583D01*
X167485929Y-97535301D01*
X167485934Y-97535300D01*
X167528206Y-97522477D01*
X167683954Y-97475232D01*
X167866450Y-97377685D01*
X168026410Y-97246410D01*
X168157685Y-97086450D01*
X168255232Y-96903954D01*
X168315300Y-96705934D01*
X168315301Y-96705929D01*
X168335583Y-96500003D01*
X168335583Y-96499996D01*
X168764417Y-96499996D01*
X168764417Y-96500003D01*
X168784698Y-96705929D01*
X168784699Y-96705934D01*
X168844768Y-96903954D01*
X168942316Y-97086452D01*
X169073476Y-97246271D01*
X169073590Y-97246410D01*
X169073595Y-97246414D01*
X169233547Y-97377683D01*
X169233548Y-97377683D01*
X169233550Y-97377685D01*
X169416046Y-97475232D01*
X169553997Y-97517078D01*
X169614065Y-97535300D01*
X169614070Y-97535301D01*
X169819997Y-97555583D01*
X169820000Y-97555583D01*
X169820003Y-97555583D01*
X170025929Y-97535301D01*
X170025934Y-97535300D01*
X170068206Y-97522477D01*
X170223954Y-97475232D01*
X170406450Y-97377685D01*
X170566410Y-97246410D01*
X170697685Y-97086450D01*
X170795232Y-96903954D01*
X170855300Y-96705934D01*
X170855301Y-96705929D01*
X170875583Y-96500003D01*
X170875583Y-96499996D01*
X170855301Y-96294070D01*
X170855300Y-96294065D01*
X170819548Y-96176207D01*
X170795232Y-96096046D01*
X170697685Y-95913550D01*
X170566410Y-95753590D01*
X170566404Y-95753585D01*
X170406452Y-95622316D01*
X170374434Y-95605202D01*
X171210000Y-95605202D01*
X171210000Y-96299999D01*
X171210001Y-96300000D01*
X171898120Y-96300000D01*
X171894075Y-96307007D01*
X171860000Y-96434174D01*
X171860000Y-96565826D01*
X171894075Y-96692993D01*
X171898120Y-96700000D01*
X171210002Y-96700000D01*
X171210001Y-96700001D01*
X171210001Y-97394791D01*
X171212909Y-97419874D01*
X171258213Y-97522477D01*
X171337522Y-97601786D01*
X171440127Y-97647090D01*
X171465203Y-97649999D01*
X172159998Y-97649999D01*
X172160000Y-97649998D01*
X172160000Y-96961879D01*
X172167007Y-96965925D01*
X172294174Y-97000000D01*
X172425826Y-97000000D01*
X172552993Y-96965925D01*
X172560000Y-96961879D01*
X172560000Y-97649998D01*
X172560001Y-97649999D01*
X173254790Y-97649999D01*
X173254791Y-97649998D01*
X173279874Y-97647090D01*
X173382477Y-97601786D01*
X173461786Y-97522477D01*
X173507090Y-97419872D01*
X173509999Y-97394797D01*
X173510000Y-97394795D01*
X173510000Y-96700001D01*
X173509999Y-96700000D01*
X172821880Y-96700000D01*
X172825925Y-96692993D01*
X172860000Y-96565826D01*
X172860000Y-96434174D01*
X172825925Y-96307007D01*
X172821880Y-96300000D01*
X173509998Y-96300000D01*
X173509999Y-96299999D01*
X173509999Y-95605210D01*
X173509998Y-95605208D01*
X173509997Y-95605202D01*
X173750000Y-95605202D01*
X173750000Y-96299999D01*
X173750001Y-96300000D01*
X174438120Y-96300000D01*
X174434075Y-96307007D01*
X174400000Y-96434174D01*
X174400000Y-96565826D01*
X174434075Y-96692993D01*
X174438120Y-96700000D01*
X173750002Y-96700000D01*
X173750001Y-96700001D01*
X173750001Y-97394791D01*
X173752909Y-97419874D01*
X173798213Y-97522477D01*
X173877522Y-97601786D01*
X173980127Y-97647090D01*
X174005203Y-97649999D01*
X174699998Y-97649999D01*
X174700000Y-97649998D01*
X174700000Y-96961879D01*
X174707007Y-96965925D01*
X174834174Y-97000000D01*
X174965826Y-97000000D01*
X175092993Y-96965925D01*
X175100000Y-96961879D01*
X175100000Y-97649998D01*
X175100001Y-97649999D01*
X175794790Y-97649999D01*
X175794791Y-97649998D01*
X175819874Y-97647090D01*
X175922477Y-97601786D01*
X176001786Y-97522477D01*
X176047090Y-97419872D01*
X176049999Y-97394797D01*
X176050000Y-97394795D01*
X176050000Y-96700001D01*
X176049999Y-96700000D01*
X175361880Y-96700000D01*
X175365925Y-96692993D01*
X175400000Y-96565826D01*
X175400000Y-96434174D01*
X175365925Y-96307007D01*
X175361880Y-96300000D01*
X176049998Y-96300000D01*
X176049999Y-96299999D01*
X176049999Y-95605210D01*
X176049998Y-95605208D01*
X176047090Y-95580125D01*
X176001786Y-95477522D01*
X175922477Y-95398213D01*
X175819872Y-95352909D01*
X175794797Y-95350000D01*
X175100001Y-95350000D01*
X175100000Y-95350001D01*
X175100000Y-96038120D01*
X175092993Y-96034075D01*
X174965826Y-96000000D01*
X174834174Y-96000000D01*
X174707007Y-96034075D01*
X174700000Y-96038120D01*
X174700000Y-95350001D01*
X174699999Y-95350000D01*
X174005210Y-95350000D01*
X174005207Y-95350001D01*
X173980125Y-95352909D01*
X173877522Y-95398213D01*
X173798213Y-95477522D01*
X173752909Y-95580127D01*
X173750000Y-95605202D01*
X173509997Y-95605202D01*
X173507090Y-95580125D01*
X173461786Y-95477522D01*
X173382477Y-95398213D01*
X173279872Y-95352909D01*
X173254797Y-95350000D01*
X172560001Y-95350000D01*
X172560000Y-95350001D01*
X172560000Y-96038120D01*
X172552993Y-96034075D01*
X172425826Y-96000000D01*
X172294174Y-96000000D01*
X172167007Y-96034075D01*
X172160000Y-96038120D01*
X172160000Y-95350001D01*
X172159999Y-95350000D01*
X171465210Y-95350000D01*
X171465207Y-95350001D01*
X171440125Y-95352909D01*
X171337522Y-95398213D01*
X171258213Y-95477522D01*
X171212909Y-95580127D01*
X171210000Y-95605202D01*
X170374434Y-95605202D01*
X170223954Y-95524768D01*
X170025934Y-95464699D01*
X170025929Y-95464698D01*
X169820003Y-95444417D01*
X169819997Y-95444417D01*
X169614070Y-95464698D01*
X169614065Y-95464699D01*
X169416045Y-95524768D01*
X169233547Y-95622316D01*
X169073595Y-95753585D01*
X169073585Y-95753595D01*
X168942316Y-95913547D01*
X168844768Y-96096045D01*
X168784699Y-96294065D01*
X168784698Y-96294070D01*
X168764417Y-96499996D01*
X168335583Y-96499996D01*
X168315301Y-96294070D01*
X168315300Y-96294065D01*
X168279548Y-96176207D01*
X168255232Y-96096046D01*
X168157685Y-95913550D01*
X168026410Y-95753590D01*
X168026404Y-95753585D01*
X167866452Y-95622316D01*
X167683954Y-95524768D01*
X167485934Y-95464699D01*
X167485929Y-95464698D01*
X167280003Y-95444417D01*
X167279997Y-95444417D01*
X167074070Y-95464698D01*
X167074065Y-95464699D01*
X166876045Y-95524768D01*
X166693547Y-95622316D01*
X166533595Y-95753585D01*
X166533585Y-95753595D01*
X166402316Y-95913547D01*
X166304768Y-96096045D01*
X166244699Y-96294065D01*
X166244698Y-96294070D01*
X166224417Y-96499996D01*
X165795583Y-96499996D01*
X165775301Y-96294070D01*
X165775300Y-96294065D01*
X165739548Y-96176207D01*
X165715232Y-96096046D01*
X165617685Y-95913550D01*
X165486410Y-95753590D01*
X165486404Y-95753585D01*
X165326452Y-95622316D01*
X165143954Y-95524768D01*
X164945934Y-95464699D01*
X164945929Y-95464698D01*
X164740003Y-95444417D01*
X164739997Y-95444417D01*
X164534070Y-95464698D01*
X164534065Y-95464699D01*
X164336045Y-95524768D01*
X164153547Y-95622316D01*
X163993595Y-95753585D01*
X163993585Y-95753595D01*
X163862316Y-95913547D01*
X163764768Y-96096045D01*
X163704699Y-96294065D01*
X163704698Y-96294070D01*
X163684417Y-96499996D01*
X163255583Y-96499996D01*
X163235301Y-96294070D01*
X163235300Y-96294065D01*
X163199548Y-96176207D01*
X163175232Y-96096046D01*
X163077685Y-95913550D01*
X162946410Y-95753590D01*
X162946404Y-95753585D01*
X162786452Y-95622316D01*
X162603954Y-95524768D01*
X162405934Y-95464699D01*
X162405929Y-95464698D01*
X162200003Y-95444417D01*
X162199997Y-95444417D01*
X161994070Y-95464698D01*
X161994065Y-95464699D01*
X161796045Y-95524768D01*
X161613547Y-95622316D01*
X161453595Y-95753585D01*
X161453585Y-95753595D01*
X161322316Y-95913547D01*
X161224768Y-96096045D01*
X161164699Y-96294065D01*
X161164698Y-96294070D01*
X161144417Y-96499996D01*
X160715583Y-96499996D01*
X160695301Y-96294070D01*
X160695300Y-96294065D01*
X160659548Y-96176207D01*
X160635232Y-96096046D01*
X160537685Y-95913550D01*
X160406410Y-95753590D01*
X160406404Y-95753585D01*
X160246452Y-95622316D01*
X160063954Y-95524768D01*
X159865934Y-95464699D01*
X159865929Y-95464698D01*
X159660003Y-95444417D01*
X159659997Y-95444417D01*
X159454070Y-95464698D01*
X159454065Y-95464699D01*
X159256045Y-95524768D01*
X159073547Y-95622316D01*
X158913595Y-95753585D01*
X158913585Y-95753595D01*
X158782316Y-95913547D01*
X158684768Y-96096045D01*
X158624699Y-96294065D01*
X158624698Y-96294070D01*
X158604417Y-96499996D01*
X158175583Y-96499996D01*
X158155301Y-96294070D01*
X158155300Y-96294065D01*
X158119548Y-96176207D01*
X158095232Y-96096046D01*
X157997685Y-95913550D01*
X157866410Y-95753590D01*
X157866404Y-95753585D01*
X157706452Y-95622316D01*
X157523954Y-95524768D01*
X157325934Y-95464699D01*
X157325929Y-95464698D01*
X157120003Y-95444417D01*
X157119997Y-95444417D01*
X156914070Y-95464698D01*
X156914065Y-95464699D01*
X156716045Y-95524768D01*
X156533547Y-95622316D01*
X156373595Y-95753585D01*
X156373585Y-95753595D01*
X156242316Y-95913547D01*
X156144768Y-96096045D01*
X156084699Y-96294065D01*
X156084698Y-96294070D01*
X156064417Y-96499996D01*
X155635583Y-96499996D01*
X155615301Y-96294070D01*
X155615300Y-96294065D01*
X155579548Y-96176207D01*
X155555232Y-96096046D01*
X155457685Y-95913550D01*
X155326410Y-95753590D01*
X155326404Y-95753585D01*
X155166452Y-95622316D01*
X154983954Y-95524768D01*
X154785934Y-95464699D01*
X154785929Y-95464698D01*
X154580003Y-95444417D01*
X154579997Y-95444417D01*
X154374070Y-95464698D01*
X154374065Y-95464699D01*
X154176045Y-95524768D01*
X153993547Y-95622316D01*
X153833595Y-95753585D01*
X153833585Y-95753595D01*
X153702316Y-95913547D01*
X153604768Y-96096045D01*
X153544699Y-96294065D01*
X153544698Y-96294070D01*
X153524417Y-96499996D01*
X153095583Y-96499996D01*
X153075301Y-96294070D01*
X153075300Y-96294065D01*
X153039548Y-96176207D01*
X153015232Y-96096046D01*
X152917685Y-95913550D01*
X152786410Y-95753590D01*
X152786404Y-95753585D01*
X152626452Y-95622316D01*
X152443954Y-95524768D01*
X152245934Y-95464699D01*
X152245929Y-95464698D01*
X152040003Y-95444417D01*
X152039997Y-95444417D01*
X151834070Y-95464698D01*
X151834065Y-95464699D01*
X151636045Y-95524768D01*
X151453547Y-95622316D01*
X151293595Y-95753585D01*
X151293585Y-95753595D01*
X151162316Y-95913547D01*
X151064768Y-96096045D01*
X151004699Y-96294065D01*
X151004698Y-96294070D01*
X150984417Y-96499996D01*
X150555583Y-96499996D01*
X150535301Y-96294070D01*
X150535300Y-96294065D01*
X150499548Y-96176207D01*
X150475232Y-96096046D01*
X150377685Y-95913550D01*
X150246410Y-95753590D01*
X150246404Y-95753585D01*
X150086452Y-95622316D01*
X149903954Y-95524768D01*
X149705934Y-95464699D01*
X149705929Y-95464698D01*
X149500003Y-95444417D01*
X149499997Y-95444417D01*
X149294070Y-95464698D01*
X149294065Y-95464699D01*
X149096045Y-95524768D01*
X148913547Y-95622316D01*
X148753595Y-95753585D01*
X148753585Y-95753595D01*
X148622316Y-95913547D01*
X148524768Y-96096045D01*
X148464699Y-96294065D01*
X148464698Y-96294070D01*
X148444417Y-96499996D01*
X147460000Y-96499996D01*
X147460000Y-96434174D01*
X147425925Y-96307007D01*
X147421880Y-96300000D01*
X148109998Y-96300000D01*
X148109999Y-96299999D01*
X148109999Y-95605210D01*
X148109998Y-95605208D01*
X148107090Y-95580125D01*
X148061786Y-95477522D01*
X147982477Y-95398213D01*
X147879872Y-95352909D01*
X147854797Y-95350000D01*
X147160001Y-95350000D01*
X147160000Y-95350001D01*
X147160000Y-96038120D01*
X147152993Y-96034075D01*
X147025826Y-96000000D01*
X146894174Y-96000000D01*
X146767007Y-96034075D01*
X146760000Y-96038120D01*
X146760000Y-95350001D01*
X146759999Y-95350000D01*
X146065210Y-95350000D01*
X146065207Y-95350001D01*
X146040125Y-95352909D01*
X145937522Y-95398213D01*
X145858213Y-95477522D01*
X145812909Y-95580127D01*
X145810000Y-95605202D01*
X144974434Y-95605202D01*
X144823954Y-95524768D01*
X144625934Y-95464699D01*
X144625929Y-95464698D01*
X144420003Y-95444417D01*
X144419997Y-95444417D01*
X144214070Y-95464698D01*
X144214065Y-95464699D01*
X144016045Y-95524768D01*
X143833547Y-95622316D01*
X143673595Y-95753585D01*
X143673585Y-95753595D01*
X143542316Y-95913547D01*
X143444768Y-96096045D01*
X143384699Y-96294065D01*
X143384698Y-96294070D01*
X143364417Y-96499996D01*
X142935583Y-96499996D01*
X142915301Y-96294070D01*
X142915300Y-96294065D01*
X142879548Y-96176207D01*
X142855232Y-96096046D01*
X142757685Y-95913550D01*
X142626410Y-95753590D01*
X142626404Y-95753585D01*
X142466452Y-95622316D01*
X142283954Y-95524768D01*
X142085934Y-95464699D01*
X142085929Y-95464698D01*
X141880003Y-95444417D01*
X141879997Y-95444417D01*
X141674070Y-95464698D01*
X141674065Y-95464699D01*
X141476045Y-95524768D01*
X141293547Y-95622316D01*
X141133595Y-95753585D01*
X141133585Y-95753595D01*
X141002316Y-95913547D01*
X140904768Y-96096045D01*
X140844699Y-96294065D01*
X140844698Y-96294070D01*
X140824417Y-96499996D01*
X140395583Y-96499996D01*
X140375301Y-96294070D01*
X140375300Y-96294065D01*
X140339548Y-96176207D01*
X140315232Y-96096046D01*
X140217685Y-95913550D01*
X140086410Y-95753590D01*
X140086404Y-95753585D01*
X139926452Y-95622316D01*
X139743954Y-95524768D01*
X139545934Y-95464699D01*
X139545929Y-95464698D01*
X139340003Y-95444417D01*
X139339997Y-95444417D01*
X139134070Y-95464698D01*
X139134065Y-95464699D01*
X138936045Y-95524768D01*
X138753547Y-95622316D01*
X138593595Y-95753585D01*
X138593585Y-95753595D01*
X138462316Y-95913547D01*
X138364768Y-96096045D01*
X138304699Y-96294065D01*
X138304698Y-96294070D01*
X138284417Y-96499996D01*
X137855583Y-96499996D01*
X137835301Y-96294070D01*
X137835300Y-96294065D01*
X137799548Y-96176207D01*
X137775232Y-96096046D01*
X137677685Y-95913550D01*
X137546410Y-95753590D01*
X137546404Y-95753585D01*
X137386452Y-95622316D01*
X137203954Y-95524768D01*
X137005934Y-95464699D01*
X137005929Y-95464698D01*
X136800003Y-95444417D01*
X136799997Y-95444417D01*
X136594070Y-95464698D01*
X136594065Y-95464699D01*
X136396045Y-95524768D01*
X136213547Y-95622316D01*
X136053595Y-95753585D01*
X136053585Y-95753595D01*
X135922316Y-95913547D01*
X135824768Y-96096045D01*
X135764699Y-96294065D01*
X135764698Y-96294070D01*
X135744417Y-96499996D01*
X135315583Y-96499996D01*
X135295301Y-96294070D01*
X135295300Y-96294065D01*
X135259548Y-96176207D01*
X135235232Y-96096046D01*
X135137685Y-95913550D01*
X135006410Y-95753590D01*
X135006404Y-95753585D01*
X134846452Y-95622316D01*
X134663954Y-95524768D01*
X134465934Y-95464699D01*
X134465929Y-95464698D01*
X134260003Y-95444417D01*
X134259997Y-95444417D01*
X134054070Y-95464698D01*
X134054065Y-95464699D01*
X133856045Y-95524768D01*
X133673547Y-95622316D01*
X133513595Y-95753585D01*
X133513585Y-95753595D01*
X133382316Y-95913547D01*
X133284768Y-96096045D01*
X133224699Y-96294065D01*
X133224698Y-96294070D01*
X133204417Y-96499996D01*
X132775583Y-96499996D01*
X132755301Y-96294070D01*
X132755300Y-96294065D01*
X132719548Y-96176207D01*
X132695232Y-96096046D01*
X132597685Y-95913550D01*
X132466410Y-95753590D01*
X132466404Y-95753585D01*
X132306452Y-95622316D01*
X132123954Y-95524768D01*
X131925934Y-95464699D01*
X131925929Y-95464698D01*
X131720003Y-95444417D01*
X131719997Y-95444417D01*
X131514070Y-95464698D01*
X131514065Y-95464699D01*
X131316045Y-95524768D01*
X131133547Y-95622316D01*
X130973595Y-95753585D01*
X130973585Y-95753595D01*
X130842316Y-95913547D01*
X130744768Y-96096045D01*
X130684699Y-96294065D01*
X130684698Y-96294070D01*
X130664417Y-96499996D01*
X130235583Y-96499996D01*
X130215301Y-96294070D01*
X130215300Y-96294065D01*
X130179548Y-96176207D01*
X130155232Y-96096046D01*
X130057685Y-95913550D01*
X129926410Y-95753590D01*
X129926404Y-95753585D01*
X129766452Y-95622316D01*
X129583954Y-95524768D01*
X129385934Y-95464699D01*
X129385929Y-95464698D01*
X129180003Y-95444417D01*
X129179997Y-95444417D01*
X128974070Y-95464698D01*
X128974065Y-95464699D01*
X128776045Y-95524768D01*
X128593547Y-95622316D01*
X128433595Y-95753585D01*
X128433585Y-95753595D01*
X128302316Y-95913547D01*
X128204768Y-96096045D01*
X128144699Y-96294065D01*
X128144698Y-96294070D01*
X128124417Y-96499996D01*
X127695583Y-96499996D01*
X127675301Y-96294070D01*
X127675300Y-96294065D01*
X127639548Y-96176207D01*
X127615232Y-96096046D01*
X127517685Y-95913550D01*
X127386410Y-95753590D01*
X127386404Y-95753585D01*
X127226452Y-95622316D01*
X127043954Y-95524768D01*
X126845934Y-95464699D01*
X126845929Y-95464698D01*
X126640003Y-95444417D01*
X126639997Y-95444417D01*
X126434070Y-95464698D01*
X126434065Y-95464699D01*
X126236045Y-95524768D01*
X126053547Y-95622316D01*
X125893595Y-95753585D01*
X125893585Y-95753595D01*
X125762316Y-95913547D01*
X125664768Y-96096045D01*
X125604699Y-96294065D01*
X125604698Y-96294070D01*
X125584417Y-96499996D01*
X125155583Y-96499996D01*
X125135301Y-96294070D01*
X125135300Y-96294065D01*
X125099548Y-96176207D01*
X125100749Y-96115034D01*
X125124279Y-96077467D01*
X126501749Y-94699997D01*
X148594353Y-94699997D01*
X148594353Y-94700002D01*
X148614834Y-94842456D01*
X148674622Y-94973371D01*
X148674623Y-94973373D01*
X148752923Y-95063737D01*
X148768873Y-95082144D01*
X148889942Y-95159950D01*
X148889947Y-95159953D01*
X148996403Y-95191211D01*
X149028035Y-95200499D01*
X149028036Y-95200499D01*
X149028039Y-95200500D01*
X149028041Y-95200500D01*
X149171959Y-95200500D01*
X149171961Y-95200500D01*
X149310053Y-95159953D01*
X149431128Y-95082143D01*
X149525377Y-94973373D01*
X149585165Y-94842457D01*
X149605647Y-94700000D01*
X149605647Y-94699997D01*
X151044353Y-94699997D01*
X151044353Y-94700002D01*
X151064834Y-94842456D01*
X151124622Y-94973371D01*
X151124623Y-94973373D01*
X151202923Y-95063737D01*
X151218873Y-95082144D01*
X151339942Y-95159950D01*
X151339947Y-95159953D01*
X151446403Y-95191211D01*
X151478035Y-95200499D01*
X151478036Y-95200499D01*
X151478039Y-95200500D01*
X151478041Y-95200500D01*
X151621959Y-95200500D01*
X151621961Y-95200500D01*
X151760053Y-95159953D01*
X151881128Y-95082143D01*
X151975377Y-94973373D01*
X152035165Y-94842457D01*
X152055647Y-94700000D01*
X152055647Y-94699997D01*
X153344353Y-94699997D01*
X153344353Y-94700002D01*
X153364834Y-94842456D01*
X153424622Y-94973371D01*
X153424623Y-94973373D01*
X153502923Y-95063737D01*
X153518873Y-95082144D01*
X153639942Y-95159950D01*
X153639947Y-95159953D01*
X153746403Y-95191211D01*
X153778035Y-95200499D01*
X153778036Y-95200499D01*
X153778039Y-95200500D01*
X153778041Y-95200500D01*
X153921959Y-95200500D01*
X153921961Y-95200500D01*
X154060053Y-95159953D01*
X154181128Y-95082143D01*
X154275377Y-94973373D01*
X154335165Y-94842457D01*
X154355647Y-94700000D01*
X154335165Y-94557543D01*
X154275377Y-94426627D01*
X154181128Y-94317857D01*
X154181127Y-94317856D01*
X154181126Y-94317855D01*
X154060057Y-94240049D01*
X154060054Y-94240047D01*
X154060053Y-94240047D01*
X154060050Y-94240046D01*
X153921964Y-94199500D01*
X153921961Y-94199500D01*
X153778039Y-94199500D01*
X153778035Y-94199500D01*
X153639949Y-94240046D01*
X153639942Y-94240049D01*
X153518873Y-94317855D01*
X153424622Y-94426628D01*
X153364834Y-94557543D01*
X153344353Y-94699997D01*
X152055647Y-94699997D01*
X152035165Y-94557543D01*
X151975377Y-94426627D01*
X151881128Y-94317857D01*
X151881127Y-94317856D01*
X151881126Y-94317855D01*
X151760057Y-94240049D01*
X151760054Y-94240047D01*
X151760053Y-94240047D01*
X151760050Y-94240046D01*
X151621964Y-94199500D01*
X151621961Y-94199500D01*
X151478039Y-94199500D01*
X151478035Y-94199500D01*
X151339949Y-94240046D01*
X151339942Y-94240049D01*
X151218873Y-94317855D01*
X151124622Y-94426628D01*
X151064834Y-94557543D01*
X151044353Y-94699997D01*
X149605647Y-94699997D01*
X149585165Y-94557543D01*
X149525377Y-94426627D01*
X149431128Y-94317857D01*
X149431127Y-94317856D01*
X149431126Y-94317855D01*
X149310057Y-94240049D01*
X149310054Y-94240047D01*
X149310053Y-94240047D01*
X149310050Y-94240046D01*
X149171964Y-94199500D01*
X149171961Y-94199500D01*
X149028039Y-94199500D01*
X149028035Y-94199500D01*
X148889949Y-94240046D01*
X148889942Y-94240049D01*
X148768873Y-94317855D01*
X148674622Y-94426628D01*
X148614834Y-94557543D01*
X148594353Y-94699997D01*
X126501749Y-94699997D01*
X131747252Y-89454496D01*
X131801769Y-89426719D01*
X131817256Y-89425500D01*
X137207268Y-89425500D01*
X137260791Y-89441216D01*
X137289942Y-89459950D01*
X137289947Y-89459953D01*
X137396403Y-89491211D01*
X137428035Y-89500499D01*
X137428036Y-89500499D01*
X137428039Y-89500500D01*
X137428041Y-89500500D01*
X137571959Y-89500500D01*
X137571961Y-89500500D01*
X137710053Y-89459953D01*
X137831128Y-89382143D01*
X137925377Y-89273373D01*
X137985165Y-89142457D01*
X137995338Y-89071699D01*
X138005647Y-89000002D01*
X138005647Y-88999997D01*
X137985165Y-88857543D01*
X137938175Y-88754652D01*
X137931201Y-88693866D01*
X137958223Y-88643524D01*
X139747252Y-86854496D01*
X139801769Y-86826719D01*
X139817256Y-86825500D01*
X142632744Y-86825500D01*
X142690935Y-86844407D01*
X142702748Y-86854496D01*
X145053795Y-89205543D01*
X145081572Y-89260060D01*
X145081783Y-89261458D01*
X145089834Y-89317456D01*
X145146354Y-89441216D01*
X145149623Y-89448373D01*
X145243872Y-89557143D01*
X145243873Y-89557144D01*
X145351991Y-89626627D01*
X145364947Y-89634953D01*
X145458710Y-89662484D01*
X145503035Y-89675499D01*
X145503036Y-89675499D01*
X145503039Y-89675500D01*
X145503041Y-89675500D01*
X145646959Y-89675500D01*
X145646961Y-89675500D01*
X145785053Y-89634953D01*
X145906128Y-89557143D01*
X146000377Y-89448373D01*
X146060165Y-89317457D01*
X146080647Y-89175000D01*
X146071587Y-89111988D01*
X146060165Y-89032543D01*
X146049637Y-89009490D01*
X146000377Y-88901627D01*
X145906128Y-88792857D01*
X145906127Y-88792856D01*
X145906126Y-88792855D01*
X145785053Y-88715047D01*
X145783446Y-88714575D01*
X145781526Y-88713435D01*
X145778610Y-88712104D01*
X145778753Y-88711790D01*
X145741338Y-88689590D01*
X144351745Y-87299997D01*
X161094353Y-87299997D01*
X161094353Y-87300002D01*
X161114834Y-87442456D01*
X161160504Y-87542457D01*
X161174623Y-87573373D01*
X161261271Y-87673371D01*
X161268873Y-87682144D01*
X161316085Y-87712485D01*
X161389947Y-87759953D01*
X161496403Y-87791211D01*
X161528035Y-87800499D01*
X161528036Y-87800499D01*
X161528039Y-87800500D01*
X161528041Y-87800500D01*
X161671959Y-87800500D01*
X161671961Y-87800500D01*
X161810053Y-87759953D01*
X161931128Y-87682143D01*
X162025377Y-87573373D01*
X162085165Y-87442457D01*
X162105647Y-87300000D01*
X162103851Y-87287510D01*
X162085165Y-87157543D01*
X162064425Y-87112129D01*
X162025377Y-87026627D01*
X161931128Y-86917857D01*
X161931127Y-86917856D01*
X161931126Y-86917855D01*
X161810057Y-86840049D01*
X161810054Y-86840047D01*
X161810053Y-86840047D01*
X161797258Y-86836290D01*
X161671964Y-86799500D01*
X161671961Y-86799500D01*
X161528039Y-86799500D01*
X161528035Y-86799500D01*
X161389949Y-86840046D01*
X161389942Y-86840049D01*
X161268873Y-86917855D01*
X161174622Y-87026628D01*
X161114834Y-87157543D01*
X161094353Y-87299997D01*
X144351745Y-87299997D01*
X144046252Y-86994504D01*
X144018475Y-86939987D01*
X144028046Y-86879555D01*
X144071311Y-86836290D01*
X144116256Y-86825500D01*
X151156016Y-86825500D01*
X151156018Y-86825500D01*
X151264237Y-86796503D01*
X151264239Y-86796501D01*
X151264241Y-86796501D01*
X151293064Y-86779859D01*
X151361263Y-86740485D01*
X153647252Y-84454496D01*
X153701769Y-84426719D01*
X153717256Y-84425500D01*
X158382744Y-84425500D01*
X158440935Y-84444407D01*
X158452748Y-84454496D01*
X160338737Y-86340485D01*
X160338739Y-86340486D01*
X160435759Y-86396501D01*
X160435757Y-86396501D01*
X160435761Y-86396502D01*
X160435763Y-86396503D01*
X160543981Y-86425500D01*
X160543982Y-86425500D01*
X170482744Y-86425500D01*
X170540935Y-86444407D01*
X170552748Y-86454496D01*
X171587190Y-87488938D01*
X171611236Y-87536132D01*
X171612839Y-87535662D01*
X171614833Y-87542455D01*
X171643968Y-87606249D01*
X171674623Y-87673373D01*
X171768872Y-87782143D01*
X171768873Y-87782144D01*
X171889942Y-87859950D01*
X171889947Y-87859953D01*
X171996403Y-87891211D01*
X172028035Y-87900499D01*
X172028036Y-87900499D01*
X172028039Y-87900500D01*
X172028041Y-87900500D01*
X172171959Y-87900500D01*
X172171961Y-87900500D01*
X172310053Y-87859953D01*
X172431128Y-87782143D01*
X172525377Y-87673373D01*
X172585165Y-87542457D01*
X172605647Y-87400000D01*
X172604748Y-87393750D01*
X172585165Y-87257543D01*
X172534447Y-87146487D01*
X172525500Y-87105360D01*
X172525500Y-87017255D01*
X172544407Y-86959064D01*
X172554490Y-86947257D01*
X173295556Y-86206190D01*
X173337665Y-86181207D01*
X173410053Y-86159953D01*
X173531128Y-86082143D01*
X173625377Y-85973373D01*
X173685165Y-85842457D01*
X173705647Y-85700000D01*
X173699826Y-85659515D01*
X173685165Y-85557543D01*
X173625377Y-85426628D01*
X173625377Y-85426627D01*
X173531128Y-85317857D01*
X173531127Y-85317856D01*
X173531126Y-85317855D01*
X173410057Y-85240049D01*
X173410054Y-85240047D01*
X173410053Y-85240047D01*
X173410050Y-85240046D01*
X173271964Y-85199500D01*
X173271961Y-85199500D01*
X173128039Y-85199500D01*
X173128035Y-85199500D01*
X172989949Y-85240046D01*
X172989942Y-85240049D01*
X172868873Y-85317855D01*
X172774622Y-85426628D01*
X172714836Y-85557539D01*
X172712842Y-85564332D01*
X172710941Y-85563774D01*
X172688168Y-85610067D01*
X172687191Y-85611059D01*
X171870003Y-86428248D01*
X171815486Y-86456025D01*
X171755054Y-86446454D01*
X171729998Y-86428250D01*
X170961263Y-85659515D01*
X170961260Y-85659513D01*
X170864240Y-85603498D01*
X170864242Y-85603498D01*
X170805509Y-85587761D01*
X170756018Y-85574500D01*
X170756016Y-85574500D01*
X160817256Y-85574500D01*
X160759065Y-85555593D01*
X160747252Y-85545504D01*
X159796252Y-84594504D01*
X159768475Y-84539987D01*
X159778046Y-84479555D01*
X159821311Y-84436290D01*
X159866256Y-84425500D01*
X160281016Y-84425500D01*
X160281018Y-84425500D01*
X160389237Y-84396503D01*
X160389239Y-84396501D01*
X160389241Y-84396501D01*
X160486258Y-84340488D01*
X160486258Y-84340487D01*
X160486263Y-84340485D01*
X160820554Y-84006192D01*
X160862665Y-83981207D01*
X160935053Y-83959953D01*
X161056128Y-83882143D01*
X161150377Y-83773373D01*
X161210165Y-83642457D01*
X161230647Y-83500000D01*
X161217859Y-83411059D01*
X161210165Y-83357543D01*
X161194808Y-83323917D01*
X161150377Y-83226627D01*
X161056128Y-83117857D01*
X161056127Y-83117856D01*
X161056126Y-83117855D01*
X160935057Y-83040049D01*
X160935054Y-83040047D01*
X160935053Y-83040047D01*
X160935050Y-83040046D01*
X160796964Y-82999500D01*
X160796961Y-82999500D01*
X160653039Y-82999500D01*
X160653035Y-82999500D01*
X160514949Y-83040046D01*
X160514942Y-83040049D01*
X160393873Y-83117855D01*
X160299622Y-83226628D01*
X160239836Y-83357539D01*
X160237842Y-83364332D01*
X160235941Y-83363774D01*
X160213170Y-83410066D01*
X160212191Y-83411059D01*
X160077749Y-83545503D01*
X160023233Y-83573281D01*
X160007745Y-83574500D01*
X158656018Y-83574500D01*
X153556019Y-83574500D01*
X153443982Y-83574500D01*
X153377748Y-83592247D01*
X153335758Y-83603498D01*
X153238739Y-83659513D01*
X150952748Y-85945504D01*
X150898231Y-85973281D01*
X150882744Y-85974500D01*
X139656018Y-85974500D01*
X139543981Y-85974500D01*
X139477748Y-85992246D01*
X139435758Y-86003498D01*
X139338735Y-86059515D01*
X139338736Y-86059516D01*
X137238737Y-88159515D01*
X137238736Y-88159514D01*
X137159514Y-88238737D01*
X137103498Y-88335758D01*
X137074500Y-88443983D01*
X137074500Y-88475500D01*
X137055593Y-88533691D01*
X137006093Y-88569655D01*
X136975500Y-88574500D01*
X131656019Y-88574500D01*
X131543982Y-88574500D01*
X131477748Y-88592247D01*
X131435758Y-88603498D01*
X131338739Y-88659513D01*
X124689811Y-95308440D01*
X124635294Y-95336217D01*
X124574862Y-95326646D01*
X124531597Y-95283381D01*
X124524181Y-95264063D01*
X124507150Y-95200500D01*
X124496503Y-95160763D01*
X124440485Y-95063737D01*
X122317006Y-92940258D01*
X122289229Y-92885741D01*
X122289029Y-92884424D01*
X122285165Y-92857543D01*
X122264361Y-92811990D01*
X122225378Y-92726629D01*
X122225377Y-92726628D01*
X122225377Y-92726627D01*
X122131128Y-92617857D01*
X122131127Y-92617856D01*
X122131126Y-92617855D01*
X122010057Y-92540049D01*
X122010054Y-92540048D01*
X122010053Y-92540047D01*
X121937666Y-92518792D01*
X121895554Y-92493806D01*
X121329496Y-91927748D01*
X121301719Y-91873231D01*
X121300500Y-91857744D01*
X121300500Y-81599994D01*
X140494353Y-81599994D01*
X140494353Y-81599999D01*
X140514834Y-81742453D01*
X140574623Y-81873370D01*
X140628170Y-81935167D01*
X140651988Y-81991526D01*
X140638130Y-82051121D01*
X140628171Y-82064829D01*
X140574622Y-82126628D01*
X140514834Y-82257543D01*
X140494353Y-82399997D01*
X140494353Y-82400002D01*
X140514834Y-82542456D01*
X140574622Y-82673371D01*
X140574623Y-82673373D01*
X140668872Y-82782143D01*
X140668873Y-82782144D01*
X140789942Y-82859950D01*
X140789947Y-82859953D01*
X140896403Y-82891211D01*
X140928035Y-82900499D01*
X140928036Y-82900499D01*
X140928039Y-82900500D01*
X140928041Y-82900500D01*
X141071959Y-82900500D01*
X141071961Y-82900500D01*
X141210053Y-82859953D01*
X141331128Y-82782143D01*
X141425377Y-82673373D01*
X141485165Y-82542457D01*
X141503780Y-82412984D01*
X141505647Y-82400002D01*
X141505647Y-82399997D01*
X141485165Y-82257543D01*
X141425377Y-82126628D01*
X141425377Y-82126627D01*
X141371828Y-82064828D01*
X141348012Y-82008469D01*
X141361871Y-81948874D01*
X141371830Y-81935167D01*
X141425377Y-81873370D01*
X141485165Y-81742454D01*
X141505647Y-81599997D01*
X141500182Y-81561989D01*
X141485165Y-81457540D01*
X141425377Y-81326625D01*
X141425377Y-81326624D01*
X141331128Y-81217854D01*
X141331127Y-81217853D01*
X141331126Y-81217852D01*
X141210057Y-81140046D01*
X141210054Y-81140044D01*
X141210053Y-81140044D01*
X141210050Y-81140043D01*
X141071964Y-81099497D01*
X141071961Y-81099497D01*
X140928039Y-81099497D01*
X140928035Y-81099497D01*
X140789949Y-81140043D01*
X140789942Y-81140046D01*
X140668873Y-81217852D01*
X140574622Y-81326625D01*
X140514834Y-81457540D01*
X140494353Y-81599994D01*
X121300500Y-81599994D01*
X121300500Y-80416230D01*
X122649500Y-80416230D01*
X122649500Y-80583769D01*
X122682183Y-80748079D01*
X122682185Y-80748085D01*
X122746296Y-80902862D01*
X122746297Y-80902863D01*
X122839374Y-81042162D01*
X122957838Y-81160626D01*
X123097137Y-81253703D01*
X123251918Y-81317816D01*
X123416233Y-81350500D01*
X123416234Y-81350500D01*
X123583766Y-81350500D01*
X123583767Y-81350500D01*
X123748082Y-81317816D01*
X123902863Y-81253703D01*
X124042162Y-81160626D01*
X124160626Y-81042162D01*
X124253703Y-80902863D01*
X124317816Y-80748082D01*
X124350500Y-80583767D01*
X124350500Y-80416233D01*
X124350499Y-80416230D01*
X127649500Y-80416230D01*
X127649500Y-80583769D01*
X127682183Y-80748079D01*
X127682185Y-80748085D01*
X127746296Y-80902862D01*
X127746297Y-80902863D01*
X127839374Y-81042162D01*
X127957838Y-81160626D01*
X128097137Y-81253703D01*
X128251918Y-81317816D01*
X128416233Y-81350500D01*
X128416234Y-81350500D01*
X128583766Y-81350500D01*
X128583767Y-81350500D01*
X128748082Y-81317816D01*
X128902863Y-81253703D01*
X129042162Y-81160626D01*
X129160626Y-81042162D01*
X129253703Y-80902863D01*
X129317816Y-80748082D01*
X129350500Y-80583767D01*
X129350500Y-80416233D01*
X129317816Y-80251918D01*
X129253703Y-80097137D01*
X129160626Y-79957838D01*
X129042162Y-79839374D01*
X128902863Y-79746297D01*
X128902864Y-79746297D01*
X128902862Y-79746296D01*
X128748085Y-79682185D01*
X128748079Y-79682183D01*
X128583769Y-79649500D01*
X128583767Y-79649500D01*
X128416233Y-79649500D01*
X128416230Y-79649500D01*
X128251920Y-79682183D01*
X128251914Y-79682185D01*
X128097137Y-79746296D01*
X127957838Y-79839374D01*
X127957834Y-79839377D01*
X127839377Y-79957834D01*
X127839374Y-79957838D01*
X127746296Y-80097137D01*
X127682185Y-80251914D01*
X127682183Y-80251920D01*
X127649500Y-80416230D01*
X124350499Y-80416230D01*
X124317816Y-80251918D01*
X124253703Y-80097137D01*
X124160626Y-79957838D01*
X124042162Y-79839374D01*
X123902863Y-79746297D01*
X123902864Y-79746297D01*
X123902862Y-79746296D01*
X123748085Y-79682185D01*
X123748079Y-79682183D01*
X123583769Y-79649500D01*
X123583767Y-79649500D01*
X123416233Y-79649500D01*
X123416230Y-79649500D01*
X123251920Y-79682183D01*
X123251914Y-79682185D01*
X123097137Y-79746296D01*
X122957838Y-79839374D01*
X122957834Y-79839377D01*
X122839377Y-79957834D01*
X122839374Y-79957838D01*
X122746296Y-80097137D01*
X122682185Y-80251914D01*
X122682183Y-80251920D01*
X122649500Y-80416230D01*
X121300500Y-80416230D01*
X121300500Y-80041230D01*
X121319407Y-79983039D01*
X121368907Y-79947075D01*
X121371590Y-79946246D01*
X121410053Y-79934953D01*
X121531128Y-79857143D01*
X121625377Y-79748373D01*
X121685165Y-79617457D01*
X121705647Y-79475000D01*
X121705413Y-79473373D01*
X121685165Y-79332543D01*
X121634447Y-79221487D01*
X121629772Y-79199997D01*
X161194353Y-79199997D01*
X161194353Y-79200002D01*
X161214834Y-79342456D01*
X161234926Y-79386450D01*
X161274623Y-79473373D01*
X161337913Y-79546414D01*
X161368873Y-79582144D01*
X161489942Y-79659950D01*
X161489947Y-79659953D01*
X161596403Y-79691211D01*
X161628035Y-79700499D01*
X161628036Y-79700499D01*
X161628039Y-79700500D01*
X161628041Y-79700500D01*
X161771959Y-79700500D01*
X161771961Y-79700500D01*
X161910053Y-79659953D01*
X162031128Y-79582143D01*
X162125377Y-79473373D01*
X162185165Y-79342457D01*
X162205079Y-79203954D01*
X162205647Y-79200002D01*
X162205647Y-79199997D01*
X162185165Y-79057543D01*
X162146725Y-78973373D01*
X162125377Y-78926627D01*
X162031128Y-78817857D01*
X162031127Y-78817856D01*
X162031126Y-78817855D01*
X161910057Y-78740049D01*
X161910054Y-78740047D01*
X161910053Y-78740047D01*
X161910050Y-78740046D01*
X161771964Y-78699500D01*
X161771961Y-78699500D01*
X161628039Y-78699500D01*
X161628035Y-78699500D01*
X161489949Y-78740046D01*
X161489942Y-78740049D01*
X161368873Y-78817855D01*
X161274622Y-78926628D01*
X161214834Y-79057543D01*
X161194353Y-79199997D01*
X121629772Y-79199997D01*
X121625500Y-79180360D01*
X121625500Y-77643983D01*
X121619049Y-77619907D01*
X121613714Y-77599997D01*
X161194353Y-77599997D01*
X161194353Y-77600002D01*
X161214834Y-77742456D01*
X161252426Y-77824769D01*
X161274623Y-77873373D01*
X161368872Y-77982143D01*
X161368873Y-77982144D01*
X161489942Y-78059950D01*
X161489947Y-78059953D01*
X161596403Y-78091211D01*
X161628035Y-78100499D01*
X161628036Y-78100499D01*
X161628039Y-78100500D01*
X161628041Y-78100500D01*
X161771959Y-78100500D01*
X161771961Y-78100500D01*
X161910053Y-78059953D01*
X162031128Y-77982143D01*
X162125377Y-77873373D01*
X162185165Y-77742457D01*
X162199323Y-77643983D01*
X162205647Y-77600002D01*
X162205647Y-77599997D01*
X162185165Y-77457543D01*
X162155218Y-77391970D01*
X162125377Y-77326627D01*
X162031128Y-77217857D01*
X162031127Y-77217856D01*
X162031126Y-77217855D01*
X161910057Y-77140049D01*
X161910054Y-77140047D01*
X161910053Y-77140047D01*
X161910050Y-77140046D01*
X161771964Y-77099500D01*
X161771961Y-77099500D01*
X161628039Y-77099500D01*
X161628035Y-77099500D01*
X161489949Y-77140046D01*
X161489942Y-77140049D01*
X161368873Y-77217855D01*
X161274622Y-77326628D01*
X161214834Y-77457543D01*
X161194353Y-77599997D01*
X121613714Y-77599997D01*
X121596503Y-77535763D01*
X121596501Y-77535760D01*
X121596501Y-77535758D01*
X121540485Y-77438737D01*
X121461263Y-77359514D01*
X121461263Y-77359515D01*
X119662808Y-75561060D01*
X119638762Y-75513867D01*
X119637160Y-75514338D01*
X119635165Y-75507545D01*
X119635165Y-75507543D01*
X119575377Y-75376627D01*
X119481128Y-75267857D01*
X119481127Y-75267856D01*
X119481126Y-75267855D01*
X119373098Y-75198430D01*
X119334366Y-75151064D01*
X119330873Y-75089978D01*
X119363953Y-75038506D01*
X119420641Y-75016327D01*
X119679240Y-75000680D01*
X119685219Y-75000500D01*
X170498651Y-75000500D01*
X170556842Y-75019407D01*
G37*
%TD.AperFunction*%
%TD*%
M02*
