%TF.GenerationSoftware,KiCad,Pcbnew,8.0.7*%
%TF.CreationDate,2024-12-31T00:41:56+01:00*%
%TF.ProjectId,BeDECT,42654445-4354-42e6-9b69-6361645f7063,rev?*%
%TF.SameCoordinates,Original*%
%TF.FileFunction,Soldermask,Bot*%
%TF.FilePolarity,Negative*%
%FSLAX46Y46*%
G04 Gerber Fmt 4.6, Leading zero omitted, Abs format (unit mm)*
G04 Created by KiCad (PCBNEW 8.0.7) date 2024-12-31 00:41:56*
%MOMM*%
%LPD*%
G01*
G04 APERTURE LIST*
%ADD10C,0.000000*%
%ADD11C,0.600000*%
%ADD12R,1.700000X1.700000*%
%ADD13O,1.700000X1.700000*%
%ADD14C,2.100000*%
%ADD15C,1.200000*%
%ADD16C,1.700000*%
%ADD17C,2.000000*%
G04 APERTURE END LIST*
D10*
%TO.C,G\u002A\u002A\u002A*%
G36*
X151700697Y-78011658D02*
G01*
X151701433Y-78024257D01*
X151695770Y-78029417D01*
X151683714Y-78028322D01*
X151677941Y-78027692D01*
X151667166Y-78032491D01*
X151657715Y-78046491D01*
X151648977Y-78070788D01*
X151640343Y-78106481D01*
X151639888Y-78108635D01*
X151634808Y-78131049D01*
X151630300Y-78148398D01*
X151627292Y-78157082D01*
X151621960Y-78162185D01*
X151612863Y-78161029D01*
X151604557Y-78151012D01*
X151599400Y-78134080D01*
X151594823Y-78113361D01*
X151577168Y-78074405D01*
X151549058Y-78038670D01*
X151511840Y-78008097D01*
X151504054Y-78002729D01*
X151492184Y-77993387D01*
X151487696Y-77987983D01*
X151488284Y-77986933D01*
X151490551Y-77984602D01*
X151561661Y-77984602D01*
X151568342Y-77995075D01*
X151580517Y-78010011D01*
X151592215Y-78023901D01*
X151602211Y-78037203D01*
X151606055Y-78044395D01*
X151606413Y-78047567D01*
X151610625Y-78049985D01*
X151617574Y-78043939D01*
X151624724Y-78031219D01*
X151632478Y-78016289D01*
X151640788Y-78005715D01*
X151641669Y-78004940D01*
X151645105Y-77998408D01*
X151643227Y-77987726D01*
X151635551Y-77969561D01*
X151630469Y-77958722D01*
X151623704Y-77944516D01*
X151620411Y-77937924D01*
X151617607Y-77938908D01*
X151607807Y-77946130D01*
X151593699Y-77958242D01*
X151583423Y-77967047D01*
X151569852Y-77977089D01*
X151561745Y-77980999D01*
X151561661Y-77984602D01*
X151490551Y-77984602D01*
X151495692Y-77979316D01*
X151509772Y-77966649D01*
X151528220Y-77951032D01*
X151552187Y-77930455D01*
X151576365Y-77906428D01*
X151591990Y-77885279D01*
X151600394Y-77865099D01*
X151602910Y-77843977D01*
X151602769Y-77836705D01*
X151601044Y-77816391D01*
X151597979Y-77801772D01*
X151597724Y-77801058D01*
X151596730Y-77790013D01*
X151605557Y-77784233D01*
X151617780Y-77783228D01*
X151635028Y-77790033D01*
X151646750Y-77804219D01*
X151647266Y-77805673D01*
X151650111Y-77819084D01*
X151653133Y-77840271D01*
X151655761Y-77865346D01*
X151655766Y-77865396D01*
X151660470Y-77899914D01*
X151669116Y-77931623D01*
X151683456Y-77966950D01*
X151693559Y-77990439D01*
X151696240Y-77998408D01*
X151700697Y-78011658D01*
G37*
G36*
X151702031Y-77311902D02*
G01*
X151715457Y-77320639D01*
X151720140Y-77324581D01*
X151724127Y-77331119D01*
X151718583Y-77336876D01*
X151701534Y-77342355D01*
X151677955Y-77342143D01*
X151652766Y-77336176D01*
X151633150Y-77331960D01*
X151612537Y-77335405D01*
X151590842Y-77348228D01*
X151565820Y-77371335D01*
X151558578Y-77379105D01*
X151524032Y-77425286D01*
X151499921Y-77476315D01*
X151485769Y-77533469D01*
X151481098Y-77598021D01*
X151480697Y-77623795D01*
X151479038Y-77645200D01*
X151475698Y-77659145D01*
X151470257Y-77668351D01*
X151460682Y-77676457D01*
X151448377Y-77680925D01*
X151444933Y-77680554D01*
X151440109Y-77676356D01*
X151437834Y-77665235D01*
X151437263Y-77644416D01*
X151434227Y-77604900D01*
X151421989Y-77550165D01*
X151401717Y-77494532D01*
X151374863Y-77441233D01*
X151342879Y-77393503D01*
X151307214Y-77354577D01*
X151300210Y-77348393D01*
X151286018Y-77338058D01*
X151273515Y-77334277D01*
X151257830Y-77335133D01*
X151254144Y-77335579D01*
X151236095Y-77335113D01*
X151225249Y-77328362D01*
X151218068Y-77321950D01*
X151202835Y-77319268D01*
X151186131Y-77328682D01*
X151179920Y-77333957D01*
X151175490Y-77334142D01*
X151174699Y-77323290D01*
X151175097Y-77319435D01*
X151181056Y-77303262D01*
X151184026Y-77298633D01*
X151316163Y-77298633D01*
X151354692Y-77339820D01*
X151360393Y-77346176D01*
X151379226Y-77370239D01*
X151398168Y-77398305D01*
X151415644Y-77427614D01*
X151430077Y-77455405D01*
X151439893Y-77478920D01*
X151443515Y-77495399D01*
X151443523Y-77496412D01*
X151445489Y-77505516D01*
X151450244Y-77503845D01*
X151456828Y-77492461D01*
X151464281Y-77472426D01*
X151479584Y-77436082D01*
X151502604Y-77397666D01*
X151530500Y-77361349D01*
X151560688Y-77330487D01*
X151590583Y-77308437D01*
X151593037Y-77306933D01*
X151596813Y-77302538D01*
X151595260Y-77295994D01*
X151587322Y-77284961D01*
X151571944Y-77267096D01*
X151540523Y-77228172D01*
X151494923Y-77157497D01*
X151457601Y-77080335D01*
X151430054Y-76999508D01*
X151422426Y-76971376D01*
X151417274Y-77021388D01*
X151409053Y-77074482D01*
X151389477Y-77147733D01*
X151361586Y-77218320D01*
X151326882Y-77281916D01*
X151316163Y-77298633D01*
X151184026Y-77298633D01*
X151191890Y-77286375D01*
X151204472Y-77272916D01*
X151216405Y-77267307D01*
X151233139Y-77267175D01*
X151247789Y-77267138D01*
X151261616Y-77262805D01*
X151274628Y-77252281D01*
X151288864Y-77233857D01*
X151306366Y-77205822D01*
X151343345Y-77134931D01*
X151375918Y-77047942D01*
X151397042Y-76956134D01*
X151398846Y-76945223D01*
X151403638Y-76918053D01*
X151407492Y-76900860D01*
X151411044Y-76891819D01*
X151414931Y-76889107D01*
X151419789Y-76890897D01*
X151422646Y-76890407D01*
X151424385Y-76880148D01*
X151423407Y-76858178D01*
X151422477Y-76841948D01*
X151422903Y-76832689D01*
X151424697Y-76833842D01*
X151426895Y-76840304D01*
X151432705Y-76857636D01*
X151440667Y-76881537D01*
X151449730Y-76908860D01*
X151471998Y-76973743D01*
X151493314Y-77030344D01*
X151513701Y-77078206D01*
X151533922Y-77119118D01*
X151554741Y-77154870D01*
X151585462Y-77201754D01*
X151612544Y-77239230D01*
X151636125Y-77267194D01*
X151657017Y-77286607D01*
X151676029Y-77298427D01*
X151683230Y-77301842D01*
X151684531Y-77302538D01*
X151702031Y-77311902D01*
G37*
G36*
X151375071Y-77903559D02*
G01*
X151391737Y-77924636D01*
X151398574Y-77938209D01*
X151395582Y-77944221D01*
X151382762Y-77942613D01*
X151360117Y-77933330D01*
X151356845Y-77931797D01*
X151342870Y-77926861D01*
X151329808Y-77927089D01*
X151311456Y-77932357D01*
X151301155Y-77935958D01*
X151289725Y-77941870D01*
X151285696Y-77949932D01*
X151286089Y-77963842D01*
X151286566Y-77973656D01*
X151283904Y-77984813D01*
X151275205Y-77990224D01*
X151261860Y-77991770D01*
X151253283Y-77987851D01*
X151253481Y-77979966D01*
X151253703Y-77976471D01*
X151245769Y-77975770D01*
X151236495Y-77980877D01*
X151222688Y-77996074D01*
X151208020Y-78018691D01*
X151194082Y-78046206D01*
X151182465Y-78076095D01*
X151181401Y-78080011D01*
X151176426Y-78098318D01*
X151169783Y-78129168D01*
X151163421Y-78164314D01*
X151158146Y-78199660D01*
X151156988Y-78208490D01*
X151152893Y-78238923D01*
X151149793Y-78258815D01*
X151147200Y-78269672D01*
X151144627Y-78272999D01*
X151141586Y-78270303D01*
X151137588Y-78263088D01*
X151136612Y-78261263D01*
X151128335Y-78249550D01*
X151121567Y-78245437D01*
X151120158Y-78244333D01*
X151115328Y-78234046D01*
X151108555Y-78214671D01*
X151100536Y-78188283D01*
X151091964Y-78156959D01*
X151086729Y-78137406D01*
X151072418Y-78090798D01*
X151118435Y-78090798D01*
X151118715Y-78095090D01*
X151122479Y-78102066D01*
X151128086Y-78099219D01*
X151132259Y-78087363D01*
X151133146Y-78080011D01*
X151132160Y-78073158D01*
X151126707Y-78075689D01*
X151122818Y-78079891D01*
X151118435Y-78090798D01*
X151072418Y-78090798D01*
X151070948Y-78086009D01*
X151053665Y-78042629D01*
X151033193Y-78003921D01*
X151007840Y-77966540D01*
X150975920Y-77927140D01*
X150966929Y-77916677D01*
X151006564Y-77916677D01*
X151038566Y-77947275D01*
X151067941Y-77981722D01*
X151093532Y-78026637D01*
X151116496Y-78075400D01*
X151127101Y-78048517D01*
X151129129Y-78043708D01*
X151148632Y-78011589D01*
X151177425Y-77979423D01*
X151213016Y-77949661D01*
X151252914Y-77924754D01*
X151263736Y-77919040D01*
X151284341Y-77907983D01*
X151299165Y-77899784D01*
X151305554Y-77895900D01*
X151305519Y-77894275D01*
X151300119Y-77885731D01*
X151289268Y-77873066D01*
X151282929Y-77865963D01*
X151266555Y-77845647D01*
X151251434Y-77824711D01*
X151245647Y-77815621D01*
X151231269Y-77790730D01*
X151214849Y-77760111D01*
X151198048Y-77727073D01*
X151182528Y-77694926D01*
X151169952Y-77666979D01*
X151161979Y-77646542D01*
X151153767Y-77621536D01*
X151145216Y-77655919D01*
X151132628Y-77702797D01*
X151111643Y-77766161D01*
X151088794Y-77818066D01*
X151063809Y-77859096D01*
X151036414Y-77889840D01*
X151006564Y-77916677D01*
X150966929Y-77916677D01*
X150960250Y-77908905D01*
X150946427Y-77892413D01*
X150939659Y-77883208D01*
X150939316Y-77880054D01*
X150944763Y-77881717D01*
X150955371Y-77886959D01*
X150980457Y-77899757D01*
X151002517Y-77877696D01*
X151009730Y-77870134D01*
X151024342Y-77851633D01*
X151037416Y-77829330D01*
X151050456Y-77800444D01*
X151064964Y-77762195D01*
X151068428Y-77752421D01*
X151093052Y-77672192D01*
X151108865Y-77596736D01*
X151116512Y-77523074D01*
X151118284Y-77494865D01*
X151120398Y-77471354D01*
X151122564Y-77455459D01*
X151124517Y-77449618D01*
X151124586Y-77449619D01*
X151135744Y-77455392D01*
X151146809Y-77470557D01*
X151156120Y-77492120D01*
X151162012Y-77517089D01*
X151164802Y-77531254D01*
X151171677Y-77553806D01*
X151182788Y-77582207D01*
X151198798Y-77618119D01*
X151220373Y-77663208D01*
X151237129Y-77697109D01*
X151260589Y-77742845D01*
X151281259Y-77780346D01*
X151300404Y-77811630D01*
X151319288Y-77838717D01*
X151339173Y-77863625D01*
X151361325Y-77888374D01*
X151368138Y-77895900D01*
X151375071Y-77903559D01*
G37*
G36*
X153910507Y-78846298D02*
G01*
X153918795Y-78857543D01*
X153916994Y-78866680D01*
X153915993Y-78867172D01*
X153906530Y-78865853D01*
X153891834Y-78860159D01*
X153873838Y-78852890D01*
X153857170Y-78850490D01*
X153849250Y-78856409D01*
X153848417Y-78857464D01*
X153838552Y-78859450D01*
X153817466Y-78858868D01*
X153784651Y-78855715D01*
X153735592Y-78852134D01*
X153663860Y-78852386D01*
X153586872Y-78857935D01*
X153507894Y-78868424D01*
X153430190Y-78883491D01*
X153357027Y-78902778D01*
X153340602Y-78907726D01*
X153308867Y-78917115D01*
X153273462Y-78927439D01*
X153239435Y-78937220D01*
X153217848Y-78943554D01*
X153181972Y-78954708D01*
X153147855Y-78965971D01*
X153120655Y-78975674D01*
X153115530Y-78977678D01*
X153091685Y-78987846D01*
X153061441Y-79001658D01*
X153027019Y-79018004D01*
X152990637Y-79035778D01*
X152954517Y-79053870D01*
X152920877Y-79071173D01*
X152891938Y-79086579D01*
X152869919Y-79098979D01*
X152857042Y-79107266D01*
X152845499Y-79113947D01*
X152835094Y-79113035D01*
X152830573Y-79112862D01*
X152816622Y-79119880D01*
X152793961Y-79135640D01*
X152762522Y-79160186D01*
X152750514Y-79169885D01*
X152728420Y-79187800D01*
X152710407Y-79202674D01*
X152694619Y-79216195D01*
X152679202Y-79230052D01*
X152662303Y-79245935D01*
X152642065Y-79265532D01*
X152616635Y-79290531D01*
X152584158Y-79322622D01*
X152559711Y-79346926D01*
X152536045Y-79371164D01*
X152518083Y-79391020D01*
X152503986Y-79408860D01*
X152491913Y-79427052D01*
X152480025Y-79447961D01*
X152466480Y-79473954D01*
X152451234Y-79505535D01*
X152430078Y-79556934D01*
X152415380Y-79603636D01*
X152407249Y-79639073D01*
X152398000Y-79685368D01*
X152388003Y-79740395D01*
X152377563Y-79802298D01*
X152366982Y-79869218D01*
X152356563Y-79939300D01*
X152346609Y-80010685D01*
X152337423Y-80081516D01*
X152336601Y-80088070D01*
X152329769Y-80139208D01*
X152322824Y-80185712D01*
X152316091Y-80225630D01*
X152309898Y-80257008D01*
X152304572Y-80277893D01*
X152290777Y-80321107D01*
X152284518Y-80293522D01*
X152278259Y-80265936D01*
X152276256Y-80296032D01*
X152275611Y-80303552D01*
X152272202Y-80319638D01*
X152266796Y-80323656D01*
X152265340Y-80321554D01*
X152262975Y-80310428D01*
X152260739Y-80289502D01*
X152258618Y-80258439D01*
X152256600Y-80216900D01*
X152254671Y-80164547D01*
X152252817Y-80101043D01*
X152251026Y-80026050D01*
X152249283Y-79939229D01*
X152247575Y-79840243D01*
X152247435Y-79831844D01*
X152246493Y-79784486D01*
X152245367Y-79740423D01*
X152244120Y-79701495D01*
X152242818Y-79669544D01*
X152241526Y-79646413D01*
X152240308Y-79633942D01*
X152237336Y-79618793D01*
X152230809Y-79589843D01*
X152222521Y-79556179D01*
X152213234Y-79520618D01*
X152203710Y-79485976D01*
X152194709Y-79455070D01*
X152186992Y-79430715D01*
X152181322Y-79415727D01*
X152179327Y-79411356D01*
X152170684Y-79391066D01*
X152160156Y-79364963D01*
X152149584Y-79337583D01*
X152141762Y-79317585D01*
X152116759Y-79263434D01*
X152087359Y-79214527D01*
X152051259Y-79167341D01*
X152006153Y-79118352D01*
X152001550Y-79113725D01*
X151958240Y-79073504D01*
X151912064Y-79035820D01*
X151865609Y-79002542D01*
X151821466Y-78975540D01*
X151782221Y-78956682D01*
X151766458Y-78949983D01*
X151741242Y-78938473D01*
X151711712Y-78924434D01*
X151681485Y-78909559D01*
X151662635Y-78900249D01*
X151615518Y-78878622D01*
X151571261Y-78861316D01*
X151527680Y-78847907D01*
X151482591Y-78837971D01*
X151433809Y-78831082D01*
X151379151Y-78826818D01*
X151316431Y-78824752D01*
X151243466Y-78824462D01*
X151169584Y-78824036D01*
X151102612Y-78821610D01*
X151047442Y-78817108D01*
X151003792Y-78810487D01*
X150971384Y-78801703D01*
X150949937Y-78790713D01*
X150947466Y-78787674D01*
X151531036Y-78787674D01*
X151531576Y-78790209D01*
X151540807Y-78799199D01*
X151559989Y-78808369D01*
X151587186Y-78817066D01*
X151620463Y-78824638D01*
X151657882Y-78830433D01*
X151705818Y-78840134D01*
X151753867Y-78858766D01*
X151760970Y-78862090D01*
X151783160Y-78871845D01*
X151800755Y-78878658D01*
X151810453Y-78881221D01*
X151810822Y-78881230D01*
X151822234Y-78885163D01*
X151836373Y-78894082D01*
X151860847Y-78911939D01*
X151887096Y-78928579D01*
X151908824Y-78939593D01*
X151923635Y-78943622D01*
X151933639Y-78947511D01*
X151950652Y-78959734D01*
X151972419Y-78978711D01*
X151997386Y-79002825D01*
X152024000Y-79030456D01*
X152050706Y-79059986D01*
X152075950Y-79089796D01*
X152098178Y-79118269D01*
X152115836Y-79143785D01*
X152120533Y-79151131D01*
X152135923Y-79174192D01*
X152149904Y-79193803D01*
X152159930Y-79206350D01*
X152166811Y-79215398D01*
X152179522Y-79236699D01*
X152193855Y-79264500D01*
X152208347Y-79295610D01*
X152221536Y-79326843D01*
X152231959Y-79355008D01*
X152238155Y-79376919D01*
X152239342Y-79382564D01*
X152244856Y-79406675D01*
X152252044Y-79436109D01*
X152259664Y-79465739D01*
X152262276Y-79475767D01*
X152269355Y-79504538D01*
X152275211Y-79530530D01*
X152278779Y-79549108D01*
X152280170Y-79556281D01*
X152285400Y-79571773D01*
X152291483Y-79579472D01*
X152296330Y-79584466D01*
X152300185Y-79599477D01*
X152300703Y-79620836D01*
X152298095Y-79645262D01*
X152292572Y-79669475D01*
X152284347Y-79690194D01*
X152279412Y-79700632D01*
X152271741Y-79723149D01*
X152268718Y-79742107D01*
X152268724Y-79745234D01*
X152269428Y-79757799D01*
X152272620Y-79760156D01*
X152280150Y-79754279D01*
X152288178Y-79747637D01*
X152294512Y-79743933D01*
X152294944Y-79744392D01*
X152296010Y-79753202D01*
X152296338Y-79771340D01*
X152296014Y-79796335D01*
X152295126Y-79825719D01*
X152293761Y-79857020D01*
X152292006Y-79887769D01*
X152289948Y-79915496D01*
X152287675Y-79937731D01*
X152285698Y-79957603D01*
X152283451Y-79988073D01*
X152281225Y-80025287D01*
X152279195Y-80066279D01*
X152277538Y-80108085D01*
X152277362Y-80113295D01*
X152276137Y-80156071D01*
X152275577Y-80189621D01*
X152275636Y-80213477D01*
X152276268Y-80227172D01*
X152277430Y-80230238D01*
X152279074Y-80222208D01*
X152281157Y-80202614D01*
X152283633Y-80170990D01*
X152284411Y-80160516D01*
X152289726Y-80103774D01*
X152297330Y-80038386D01*
X152306778Y-79967278D01*
X152317627Y-79893374D01*
X152329431Y-79819597D01*
X152341746Y-79748873D01*
X152354127Y-79684126D01*
X152366131Y-79628279D01*
X152369835Y-79611004D01*
X152376849Y-79571318D01*
X152382447Y-79530617D01*
X152385667Y-79495434D01*
X152386991Y-79475823D01*
X152389207Y-79452860D01*
X152391567Y-79437167D01*
X152393742Y-79431356D01*
X152394215Y-79431456D01*
X152399093Y-79438012D01*
X152404496Y-79451673D01*
X152410800Y-79471991D01*
X152421714Y-79447109D01*
X152430756Y-79431157D01*
X152447420Y-79407213D01*
X152470052Y-79377602D01*
X152497263Y-79344037D01*
X152527666Y-79308227D01*
X152559871Y-79271883D01*
X152592490Y-79236716D01*
X152603587Y-79225230D01*
X152632020Y-79197100D01*
X152661526Y-79169455D01*
X152690461Y-79143694D01*
X152717182Y-79121220D01*
X152740043Y-79103432D01*
X152757400Y-79091733D01*
X152767609Y-79087521D01*
X152768777Y-79087364D01*
X152779883Y-79082898D01*
X152798702Y-79073203D01*
X152822922Y-79059523D01*
X152850230Y-79043101D01*
X152850905Y-79042684D01*
X152881850Y-79024321D01*
X152913204Y-79007001D01*
X152941342Y-78992655D01*
X152962639Y-78983215D01*
X152982564Y-78975273D01*
X153013490Y-78962027D01*
X153040783Y-78949409D01*
X153043130Y-78948296D01*
X153062521Y-78940173D01*
X153090918Y-78929394D01*
X153125835Y-78916855D01*
X153164788Y-78903453D01*
X153205292Y-78890083D01*
X153214095Y-78887237D01*
X153255230Y-78873706D01*
X153285768Y-78863145D01*
X153306889Y-78855069D01*
X153319769Y-78848999D01*
X153325589Y-78844452D01*
X153325527Y-78840946D01*
X153325106Y-78840473D01*
X153313039Y-78833227D01*
X153291471Y-78825483D01*
X153263144Y-78817975D01*
X153230799Y-78811436D01*
X153197178Y-78806600D01*
X153191383Y-78805897D01*
X153147336Y-78796434D01*
X153102638Y-78778759D01*
X153095007Y-78775176D01*
X153073375Y-78765486D01*
X153056768Y-78758729D01*
X153048284Y-78756190D01*
X153045454Y-78755575D01*
X153033467Y-78750019D01*
X153017676Y-78740561D01*
X153014164Y-78738253D01*
X152991695Y-78723486D01*
X152970117Y-78709303D01*
X152963923Y-78705527D01*
X152945737Y-78697055D01*
X152931244Y-78693674D01*
X152929828Y-78693517D01*
X152917780Y-78687288D01*
X152899755Y-78673135D01*
X152877266Y-78652649D01*
X152851829Y-78627420D01*
X152824956Y-78599039D01*
X152798162Y-78569097D01*
X152772960Y-78539185D01*
X152750866Y-78510893D01*
X152733393Y-78485811D01*
X152722386Y-78469027D01*
X152708666Y-78449445D01*
X152698176Y-78436064D01*
X152692575Y-78431110D01*
X152688364Y-78427054D01*
X152680110Y-78413590D01*
X152669317Y-78393029D01*
X152657113Y-78367794D01*
X152644628Y-78340308D01*
X152632992Y-78312993D01*
X152623335Y-78288273D01*
X152616786Y-78268570D01*
X152615776Y-78264915D01*
X152610203Y-78243540D01*
X152602891Y-78214193D01*
X152594672Y-78180262D01*
X152586381Y-78145130D01*
X152586246Y-78144551D01*
X152577032Y-78107263D01*
X152569026Y-78079451D01*
X152562531Y-78062062D01*
X152557852Y-78056046D01*
X152554637Y-78053549D01*
X152552020Y-78043055D01*
X152550647Y-78023004D01*
X152550347Y-77991939D01*
X152550503Y-77978253D01*
X152551315Y-77944184D01*
X152552691Y-77902626D01*
X152554500Y-77856435D01*
X152556614Y-77808466D01*
X152558903Y-77761575D01*
X152561240Y-77718617D01*
X152563493Y-77682446D01*
X152565536Y-77655919D01*
X152565763Y-77652462D01*
X152564915Y-77653188D01*
X152562399Y-77664490D01*
X152558451Y-77685152D01*
X152553310Y-77713958D01*
X152547213Y-77749692D01*
X152542720Y-77776277D01*
X152529695Y-77850227D01*
X152516374Y-77920641D01*
X152501753Y-77992715D01*
X152484822Y-78071646D01*
X152480178Y-78098982D01*
X152476555Y-78133201D01*
X152475127Y-78164898D01*
X152474816Y-78184008D01*
X152473286Y-78201973D01*
X152470268Y-78207977D01*
X152465525Y-78202317D01*
X152458822Y-78185288D01*
X152452002Y-78165419D01*
X152438261Y-78196458D01*
X152432584Y-78208737D01*
X152424867Y-78223643D01*
X152419959Y-78230842D01*
X152418796Y-78231904D01*
X152410830Y-78240659D01*
X152397857Y-78255798D01*
X152382034Y-78274821D01*
X152378824Y-78278715D01*
X152348408Y-78314257D01*
X152315125Y-78351084D01*
X152280213Y-78388011D01*
X152244911Y-78423856D01*
X152210457Y-78457434D01*
X152178089Y-78487561D01*
X152149046Y-78513054D01*
X152124567Y-78532729D01*
X152105890Y-78545402D01*
X152094254Y-78549889D01*
X152090869Y-78550767D01*
X152077408Y-78556841D01*
X152056520Y-78567742D01*
X152030317Y-78582347D01*
X152000914Y-78599529D01*
X151989940Y-78605991D01*
X151956815Y-78624527D01*
X151924652Y-78641260D01*
X151896652Y-78654565D01*
X151876021Y-78662818D01*
X151853884Y-78670702D01*
X151830830Y-78680198D01*
X151814478Y-78688361D01*
X151811387Y-78690107D01*
X151797015Y-78696759D01*
X151775198Y-78705222D01*
X151745018Y-78715811D01*
X151705556Y-78728840D01*
X151655895Y-78744624D01*
X151595115Y-78763477D01*
X151573982Y-78770227D01*
X151551762Y-78777999D01*
X151536628Y-78784124D01*
X151531036Y-78787674D01*
X150947466Y-78787674D01*
X150939172Y-78777474D01*
X150938843Y-78776590D01*
X150938201Y-78766381D01*
X150946694Y-78764528D01*
X150964431Y-78771000D01*
X150982323Y-78778248D01*
X150999145Y-78780605D01*
X151007157Y-78774322D01*
X151009476Y-78772238D01*
X151020050Y-78770810D01*
X151040218Y-78771803D01*
X151071312Y-78775235D01*
X151074006Y-78775565D01*
X151126313Y-78779436D01*
X151186295Y-78779890D01*
X151249884Y-78777098D01*
X151313015Y-78771234D01*
X151371622Y-78762471D01*
X151372481Y-78762313D01*
X151403575Y-78756539D01*
X151426179Y-78752147D01*
X151444010Y-78748265D01*
X151460784Y-78744023D01*
X151480218Y-78738550D01*
X151506030Y-78730974D01*
X151513860Y-78728684D01*
X151541906Y-78720654D01*
X151574490Y-78711502D01*
X151606055Y-78702794D01*
X151617712Y-78699529D01*
X151654148Y-78688621D01*
X151693117Y-78676166D01*
X151727960Y-78664271D01*
X151740851Y-78659451D01*
X151771905Y-78646734D01*
X151807975Y-78630884D01*
X151846699Y-78613044D01*
X151885714Y-78594356D01*
X151922659Y-78575962D01*
X151955171Y-78559003D01*
X151980888Y-78544623D01*
X151997449Y-78533963D01*
X151997640Y-78533820D01*
X152013571Y-78524604D01*
X152023031Y-78525507D01*
X152027284Y-78525630D01*
X152039879Y-78519711D01*
X152058372Y-78508028D01*
X152080793Y-78492136D01*
X152105171Y-78473592D01*
X152129536Y-78453954D01*
X152151916Y-78434779D01*
X152170342Y-78417623D01*
X152182843Y-78404044D01*
X152187448Y-78395598D01*
X152188234Y-78391745D01*
X152193730Y-78390494D01*
X152193767Y-78390515D01*
X152200439Y-78387717D01*
X152213986Y-78377542D01*
X152232673Y-78361631D01*
X152254761Y-78341627D01*
X152278516Y-78319169D01*
X152302201Y-78295899D01*
X152324079Y-78273458D01*
X152342415Y-78253488D01*
X152355471Y-78237629D01*
X152356895Y-78235689D01*
X152379514Y-78199933D01*
X152402163Y-78155921D01*
X152423158Y-78107519D01*
X152440812Y-78058590D01*
X152453440Y-78012998D01*
X152454622Y-78007673D01*
X152464804Y-77958453D01*
X152475909Y-77899515D01*
X152487538Y-77833269D01*
X152499293Y-77762124D01*
X152510772Y-77688489D01*
X152521577Y-77614775D01*
X152531309Y-77543391D01*
X152534469Y-77519750D01*
X152540420Y-77477954D01*
X152546262Y-77440087D01*
X152551645Y-77408270D01*
X152556220Y-77384622D01*
X152559639Y-77371265D01*
X152561471Y-77365959D01*
X152566693Y-77347160D01*
X152568792Y-77333235D01*
X152569858Y-77322955D01*
X152575550Y-77315386D01*
X152585408Y-77319156D01*
X152588632Y-77324732D01*
X152591068Y-77336900D01*
X152592663Y-77357032D01*
X152593534Y-77386639D01*
X152593798Y-77427229D01*
X152594019Y-77457724D01*
X152594892Y-77504800D01*
X152596312Y-77556517D01*
X152598152Y-77608458D01*
X152600288Y-77656207D01*
X152601880Y-77690020D01*
X152604050Y-77743943D01*
X152605958Y-77800150D01*
X152607439Y-77853719D01*
X152608333Y-77899729D01*
X152608394Y-77904235D01*
X152609066Y-77944699D01*
X152610075Y-77976023D01*
X152611803Y-78001274D01*
X152614628Y-78023521D01*
X152618931Y-78045830D01*
X152625091Y-78071269D01*
X152633487Y-78102904D01*
X152634839Y-78107872D01*
X152645461Y-78144531D01*
X152656997Y-78180973D01*
X152668144Y-78213224D01*
X152677596Y-78237312D01*
X152690125Y-78266303D01*
X152703521Y-78297847D01*
X152714760Y-78324834D01*
X152716221Y-78328362D01*
X152753359Y-78401318D01*
X152801608Y-78470044D01*
X152860065Y-78533667D01*
X152927829Y-78591316D01*
X153003998Y-78642120D01*
X153087669Y-78685206D01*
X153098010Y-78689872D01*
X153133260Y-78706234D01*
X153169937Y-78723799D01*
X153201587Y-78739489D01*
X153230974Y-78753569D01*
X153281294Y-78773434D01*
X153333926Y-78788542D01*
X153390829Y-78799224D01*
X153453964Y-78805813D01*
X153525292Y-78808639D01*
X153606772Y-78808036D01*
X153638899Y-78807382D01*
X153709893Y-78807375D01*
X153769479Y-78809699D01*
X153818291Y-78814405D01*
X153856962Y-78821547D01*
X153886125Y-78831177D01*
X153893855Y-78834927D01*
X153907804Y-78844452D01*
X153910507Y-78846298D01*
G37*
%TD*%
D11*
%TO.C,SW4*%
X117725000Y-81900000D03*
X117725000Y-78199998D03*
%TD*%
%TO.C,SW3*%
X117725000Y-87500000D03*
X117725000Y-83799998D03*
%TD*%
%TO.C,SW2*%
X117725000Y-93150001D03*
X117725000Y-89449999D03*
%TD*%
D12*
%TO.C,LS1*%
X171150000Y-78800000D03*
D13*
X173690000Y-78800000D03*
%TD*%
D14*
%TO.C,REF\u002A\u002A*%
X173625000Y-76400000D03*
%TD*%
%TO.C,REF\u002A\u002A*%
X171025000Y-76400000D03*
%TD*%
D15*
%TO.C,J2*%
X123500000Y-80500000D03*
X128500000Y-80500000D03*
%TD*%
D16*
%TO.C,J1*%
X119020000Y-96500000D03*
D12*
X121560000Y-96500000D03*
D13*
X124100000Y-96500000D03*
X126640000Y-96500000D03*
X129180000Y-96500000D03*
X131720000Y-96500000D03*
X134260000Y-96500000D03*
X136800000Y-96500000D03*
X139340000Y-96500000D03*
X141880000Y-96500000D03*
X144420000Y-96500000D03*
D12*
X146960000Y-96500000D03*
D13*
X149500000Y-96500000D03*
X152040000Y-96500000D03*
X154580000Y-96500000D03*
X157120000Y-96500000D03*
X159660000Y-96500000D03*
X162200000Y-96500000D03*
X164740000Y-96500000D03*
X167280000Y-96500000D03*
X169820000Y-96500000D03*
D12*
X172360000Y-96500000D03*
X174900000Y-96500000D03*
%TD*%
D17*
%TO.C,TP1*%
X157200000Y-84800000D03*
%TD*%
M02*
