%TF.GenerationSoftware,KiCad,Pcbnew,8.0.7*%
%TF.CreationDate,2024-12-31T00:41:56+01:00*%
%TF.ProjectId,BeDECT,42654445-4354-42e6-9b69-6361645f7063,rev?*%
%TF.SameCoordinates,Original*%
%TF.FileFunction,Legend,Bot*%
%TF.FilePolarity,Positive*%
%FSLAX46Y46*%
G04 Gerber Fmt 4.6, Leading zero omitted, Abs format (unit mm)*
G04 Created by KiCad (PCBNEW 8.0.7) date 2024-12-31 00:41:56*
%MOMM*%
%LPD*%
G01*
G04 APERTURE LIST*
%ADD10C,0.300000*%
%ADD11C,0.250000*%
%ADD12C,0.120000*%
G04 APERTURE END LIST*
D10*
X154345489Y-84585282D02*
X154131203Y-84656710D01*
X154131203Y-84656710D02*
X154059774Y-84728139D01*
X154059774Y-84728139D02*
X153988346Y-84870996D01*
X153988346Y-84870996D02*
X153988346Y-85085282D01*
X153988346Y-85085282D02*
X154059774Y-85228139D01*
X154059774Y-85228139D02*
X154131203Y-85299568D01*
X154131203Y-85299568D02*
X154274060Y-85370996D01*
X154274060Y-85370996D02*
X154845489Y-85370996D01*
X154845489Y-85370996D02*
X154845489Y-83870996D01*
X154845489Y-83870996D02*
X154345489Y-83870996D01*
X154345489Y-83870996D02*
X154202632Y-83942425D01*
X154202632Y-83942425D02*
X154131203Y-84013853D01*
X154131203Y-84013853D02*
X154059774Y-84156710D01*
X154059774Y-84156710D02*
X154059774Y-84299568D01*
X154059774Y-84299568D02*
X154131203Y-84442425D01*
X154131203Y-84442425D02*
X154202632Y-84513853D01*
X154202632Y-84513853D02*
X154345489Y-84585282D01*
X154345489Y-84585282D02*
X154845489Y-84585282D01*
X152774060Y-85299568D02*
X152916917Y-85370996D01*
X152916917Y-85370996D02*
X153202632Y-85370996D01*
X153202632Y-85370996D02*
X153345489Y-85299568D01*
X153345489Y-85299568D02*
X153416917Y-85156710D01*
X153416917Y-85156710D02*
X153416917Y-84585282D01*
X153416917Y-84585282D02*
X153345489Y-84442425D01*
X153345489Y-84442425D02*
X153202632Y-84370996D01*
X153202632Y-84370996D02*
X152916917Y-84370996D01*
X152916917Y-84370996D02*
X152774060Y-84442425D01*
X152774060Y-84442425D02*
X152702632Y-84585282D01*
X152702632Y-84585282D02*
X152702632Y-84728139D01*
X152702632Y-84728139D02*
X153416917Y-84870996D01*
X152059775Y-85370996D02*
X152059775Y-83870996D01*
X152059775Y-83870996D02*
X151702632Y-83870996D01*
X151702632Y-83870996D02*
X151488346Y-83942425D01*
X151488346Y-83942425D02*
X151345489Y-84085282D01*
X151345489Y-84085282D02*
X151274060Y-84228139D01*
X151274060Y-84228139D02*
X151202632Y-84513853D01*
X151202632Y-84513853D02*
X151202632Y-84728139D01*
X151202632Y-84728139D02*
X151274060Y-85013853D01*
X151274060Y-85013853D02*
X151345489Y-85156710D01*
X151345489Y-85156710D02*
X151488346Y-85299568D01*
X151488346Y-85299568D02*
X151702632Y-85370996D01*
X151702632Y-85370996D02*
X152059775Y-85370996D01*
X150559775Y-84585282D02*
X150059775Y-84585282D01*
X149845489Y-85370996D02*
X150559775Y-85370996D01*
X150559775Y-85370996D02*
X150559775Y-83870996D01*
X150559775Y-83870996D02*
X149845489Y-83870996D01*
X148345489Y-85228139D02*
X148416917Y-85299568D01*
X148416917Y-85299568D02*
X148631203Y-85370996D01*
X148631203Y-85370996D02*
X148774060Y-85370996D01*
X148774060Y-85370996D02*
X148988346Y-85299568D01*
X148988346Y-85299568D02*
X149131203Y-85156710D01*
X149131203Y-85156710D02*
X149202632Y-85013853D01*
X149202632Y-85013853D02*
X149274060Y-84728139D01*
X149274060Y-84728139D02*
X149274060Y-84513853D01*
X149274060Y-84513853D02*
X149202632Y-84228139D01*
X149202632Y-84228139D02*
X149131203Y-84085282D01*
X149131203Y-84085282D02*
X148988346Y-83942425D01*
X148988346Y-83942425D02*
X148774060Y-83870996D01*
X148774060Y-83870996D02*
X148631203Y-83870996D01*
X148631203Y-83870996D02*
X148416917Y-83942425D01*
X148416917Y-83942425D02*
X148345489Y-84013853D01*
X147916917Y-83870996D02*
X147059775Y-83870996D01*
X147488346Y-85370996D02*
X147488346Y-83870996D01*
X145559775Y-84370996D02*
X145202632Y-85370996D01*
X145202632Y-85370996D02*
X144845489Y-84370996D01*
X143988346Y-83870996D02*
X143845489Y-83870996D01*
X143845489Y-83870996D02*
X143702632Y-83942425D01*
X143702632Y-83942425D02*
X143631204Y-84013853D01*
X143631204Y-84013853D02*
X143559775Y-84156710D01*
X143559775Y-84156710D02*
X143488346Y-84442425D01*
X143488346Y-84442425D02*
X143488346Y-84799568D01*
X143488346Y-84799568D02*
X143559775Y-85085282D01*
X143559775Y-85085282D02*
X143631204Y-85228139D01*
X143631204Y-85228139D02*
X143702632Y-85299568D01*
X143702632Y-85299568D02*
X143845489Y-85370996D01*
X143845489Y-85370996D02*
X143988346Y-85370996D01*
X143988346Y-85370996D02*
X144131204Y-85299568D01*
X144131204Y-85299568D02*
X144202632Y-85228139D01*
X144202632Y-85228139D02*
X144274061Y-85085282D01*
X144274061Y-85085282D02*
X144345489Y-84799568D01*
X144345489Y-84799568D02*
X144345489Y-84442425D01*
X144345489Y-84442425D02*
X144274061Y-84156710D01*
X144274061Y-84156710D02*
X144202632Y-84013853D01*
X144202632Y-84013853D02*
X144131204Y-83942425D01*
X144131204Y-83942425D02*
X143988346Y-83870996D01*
X142845490Y-85228139D02*
X142774061Y-85299568D01*
X142774061Y-85299568D02*
X142845490Y-85370996D01*
X142845490Y-85370996D02*
X142916918Y-85299568D01*
X142916918Y-85299568D02*
X142845490Y-85228139D01*
X142845490Y-85228139D02*
X142845490Y-85370996D01*
X141345489Y-85370996D02*
X142202632Y-85370996D01*
X141774061Y-85370996D02*
X141774061Y-83870996D01*
X141774061Y-83870996D02*
X141916918Y-84085282D01*
X141916918Y-84085282D02*
X142059775Y-84228139D01*
X142059775Y-84228139D02*
X142202632Y-84299568D01*
X152559775Y-87785912D02*
X152559775Y-86285912D01*
X152559775Y-86857341D02*
X152416918Y-86785912D01*
X152416918Y-86785912D02*
X152131203Y-86785912D01*
X152131203Y-86785912D02*
X151988346Y-86857341D01*
X151988346Y-86857341D02*
X151916918Y-86928769D01*
X151916918Y-86928769D02*
X151845489Y-87071626D01*
X151845489Y-87071626D02*
X151845489Y-87500198D01*
X151845489Y-87500198D02*
X151916918Y-87643055D01*
X151916918Y-87643055D02*
X151988346Y-87714484D01*
X151988346Y-87714484D02*
X152131203Y-87785912D01*
X152131203Y-87785912D02*
X152416918Y-87785912D01*
X152416918Y-87785912D02*
X152559775Y-87714484D01*
X151345489Y-86785912D02*
X150988346Y-87785912D01*
X150631203Y-86785912D02*
X150988346Y-87785912D01*
X150988346Y-87785912D02*
X151131203Y-88143055D01*
X151131203Y-88143055D02*
X151202632Y-88214484D01*
X151202632Y-88214484D02*
X151345489Y-88285912D01*
X155059774Y-88700828D02*
X154202632Y-88700828D01*
X154631203Y-90200828D02*
X154631203Y-88700828D01*
X153702632Y-90200828D02*
X153702632Y-89200828D01*
X153702632Y-89486542D02*
X153631203Y-89343685D01*
X153631203Y-89343685D02*
X153559775Y-89272257D01*
X153559775Y-89272257D02*
X153416917Y-89200828D01*
X153416917Y-89200828D02*
X153274060Y-89200828D01*
X152202632Y-90129400D02*
X152345489Y-90200828D01*
X152345489Y-90200828D02*
X152631204Y-90200828D01*
X152631204Y-90200828D02*
X152774061Y-90129400D01*
X152774061Y-90129400D02*
X152845489Y-89986542D01*
X152845489Y-89986542D02*
X152845489Y-89415114D01*
X152845489Y-89415114D02*
X152774061Y-89272257D01*
X152774061Y-89272257D02*
X152631204Y-89200828D01*
X152631204Y-89200828D02*
X152345489Y-89200828D01*
X152345489Y-89200828D02*
X152202632Y-89272257D01*
X152202632Y-89272257D02*
X152131204Y-89415114D01*
X152131204Y-89415114D02*
X152131204Y-89557971D01*
X152131204Y-89557971D02*
X152845489Y-89700828D01*
X151488347Y-90200828D02*
X151488347Y-88700828D01*
X151488347Y-89272257D02*
X151345490Y-89200828D01*
X151345490Y-89200828D02*
X151059775Y-89200828D01*
X151059775Y-89200828D02*
X150916918Y-89272257D01*
X150916918Y-89272257D02*
X150845490Y-89343685D01*
X150845490Y-89343685D02*
X150774061Y-89486542D01*
X150774061Y-89486542D02*
X150774061Y-89915114D01*
X150774061Y-89915114D02*
X150845490Y-90057971D01*
X150845490Y-90057971D02*
X150916918Y-90129400D01*
X150916918Y-90129400D02*
X151059775Y-90200828D01*
X151059775Y-90200828D02*
X151345490Y-90200828D01*
X151345490Y-90200828D02*
X151488347Y-90129400D01*
X149916918Y-90200828D02*
X150059775Y-90129400D01*
X150059775Y-90129400D02*
X150131204Y-89986542D01*
X150131204Y-89986542D02*
X150131204Y-88700828D01*
X148774061Y-90129400D02*
X148916918Y-90200828D01*
X148916918Y-90200828D02*
X149202633Y-90200828D01*
X149202633Y-90200828D02*
X149345490Y-90129400D01*
X149345490Y-90129400D02*
X149416918Y-89986542D01*
X149416918Y-89986542D02*
X149416918Y-89415114D01*
X149416918Y-89415114D02*
X149345490Y-89272257D01*
X149345490Y-89272257D02*
X149202633Y-89200828D01*
X149202633Y-89200828D02*
X148916918Y-89200828D01*
X148916918Y-89200828D02*
X148774061Y-89272257D01*
X148774061Y-89272257D02*
X148702633Y-89415114D01*
X148702633Y-89415114D02*
X148702633Y-89557971D01*
X148702633Y-89557971D02*
X149416918Y-89700828D01*
D11*
X150540288Y-80197952D02*
X150159336Y-80197952D01*
X150397431Y-79864619D02*
X150397431Y-80721761D01*
X150397431Y-80721761D02*
X150349812Y-80817000D01*
X150349812Y-80817000D02*
X150254574Y-80864619D01*
X150254574Y-80864619D02*
X150159336Y-80864619D01*
X149826002Y-80864619D02*
X149826002Y-80197952D01*
X149826002Y-80388428D02*
X149778383Y-80293190D01*
X149778383Y-80293190D02*
X149730764Y-80245571D01*
X149730764Y-80245571D02*
X149635526Y-80197952D01*
X149635526Y-80197952D02*
X149540288Y-80197952D01*
X148778383Y-80864619D02*
X148778383Y-80340809D01*
X148778383Y-80340809D02*
X148826002Y-80245571D01*
X148826002Y-80245571D02*
X148921240Y-80197952D01*
X148921240Y-80197952D02*
X149111716Y-80197952D01*
X149111716Y-80197952D02*
X149206954Y-80245571D01*
X148778383Y-80817000D02*
X148873621Y-80864619D01*
X148873621Y-80864619D02*
X149111716Y-80864619D01*
X149111716Y-80864619D02*
X149206954Y-80817000D01*
X149206954Y-80817000D02*
X149254573Y-80721761D01*
X149254573Y-80721761D02*
X149254573Y-80626523D01*
X149254573Y-80626523D02*
X149206954Y-80531285D01*
X149206954Y-80531285D02*
X149111716Y-80483666D01*
X149111716Y-80483666D02*
X148873621Y-80483666D01*
X148873621Y-80483666D02*
X148778383Y-80436047D01*
X148302192Y-80197952D02*
X148302192Y-80864619D01*
X148302192Y-80293190D02*
X148254573Y-80245571D01*
X148254573Y-80245571D02*
X148159335Y-80197952D01*
X148159335Y-80197952D02*
X148016478Y-80197952D01*
X148016478Y-80197952D02*
X147921240Y-80245571D01*
X147921240Y-80245571D02*
X147873621Y-80340809D01*
X147873621Y-80340809D02*
X147873621Y-80864619D01*
X147445049Y-80817000D02*
X147349811Y-80864619D01*
X147349811Y-80864619D02*
X147159335Y-80864619D01*
X147159335Y-80864619D02*
X147064097Y-80817000D01*
X147064097Y-80817000D02*
X147016478Y-80721761D01*
X147016478Y-80721761D02*
X147016478Y-80674142D01*
X147016478Y-80674142D02*
X147064097Y-80578904D01*
X147064097Y-80578904D02*
X147159335Y-80531285D01*
X147159335Y-80531285D02*
X147302192Y-80531285D01*
X147302192Y-80531285D02*
X147397430Y-80483666D01*
X147397430Y-80483666D02*
X147445049Y-80388428D01*
X147445049Y-80388428D02*
X147445049Y-80340809D01*
X147445049Y-80340809D02*
X147397430Y-80245571D01*
X147397430Y-80245571D02*
X147302192Y-80197952D01*
X147302192Y-80197952D02*
X147159335Y-80197952D01*
X147159335Y-80197952D02*
X147064097Y-80245571D01*
X145826001Y-80864619D02*
X145826001Y-80197952D01*
X145826001Y-80388428D02*
X145778382Y-80293190D01*
X145778382Y-80293190D02*
X145730763Y-80245571D01*
X145730763Y-80245571D02*
X145635525Y-80197952D01*
X145635525Y-80197952D02*
X145540287Y-80197952D01*
X145206953Y-80864619D02*
X145206953Y-80197952D01*
X145206953Y-79864619D02*
X145254572Y-79912238D01*
X145254572Y-79912238D02*
X145206953Y-79959857D01*
X145206953Y-79959857D02*
X145159334Y-79912238D01*
X145159334Y-79912238D02*
X145206953Y-79864619D01*
X145206953Y-79864619D02*
X145206953Y-79959857D01*
X144302192Y-80197952D02*
X144302192Y-81007476D01*
X144302192Y-81007476D02*
X144349811Y-81102714D01*
X144349811Y-81102714D02*
X144397430Y-81150333D01*
X144397430Y-81150333D02*
X144492668Y-81197952D01*
X144492668Y-81197952D02*
X144635525Y-81197952D01*
X144635525Y-81197952D02*
X144730763Y-81150333D01*
X144302192Y-80817000D02*
X144397430Y-80864619D01*
X144397430Y-80864619D02*
X144587906Y-80864619D01*
X144587906Y-80864619D02*
X144683144Y-80817000D01*
X144683144Y-80817000D02*
X144730763Y-80769380D01*
X144730763Y-80769380D02*
X144778382Y-80674142D01*
X144778382Y-80674142D02*
X144778382Y-80388428D01*
X144778382Y-80388428D02*
X144730763Y-80293190D01*
X144730763Y-80293190D02*
X144683144Y-80245571D01*
X144683144Y-80245571D02*
X144587906Y-80197952D01*
X144587906Y-80197952D02*
X144397430Y-80197952D01*
X144397430Y-80197952D02*
X144302192Y-80245571D01*
X143826001Y-80864619D02*
X143826001Y-79864619D01*
X143397430Y-80864619D02*
X143397430Y-80340809D01*
X143397430Y-80340809D02*
X143445049Y-80245571D01*
X143445049Y-80245571D02*
X143540287Y-80197952D01*
X143540287Y-80197952D02*
X143683144Y-80197952D01*
X143683144Y-80197952D02*
X143778382Y-80245571D01*
X143778382Y-80245571D02*
X143826001Y-80293190D01*
X143064096Y-80197952D02*
X142683144Y-80197952D01*
X142921239Y-79864619D02*
X142921239Y-80721761D01*
X142921239Y-80721761D02*
X142873620Y-80817000D01*
X142873620Y-80817000D02*
X142778382Y-80864619D01*
X142778382Y-80864619D02*
X142683144Y-80864619D01*
X142397429Y-80817000D02*
X142302191Y-80864619D01*
X142302191Y-80864619D02*
X142111715Y-80864619D01*
X142111715Y-80864619D02*
X142016477Y-80817000D01*
X142016477Y-80817000D02*
X141968858Y-80721761D01*
X141968858Y-80721761D02*
X141968858Y-80674142D01*
X141968858Y-80674142D02*
X142016477Y-80578904D01*
X142016477Y-80578904D02*
X142111715Y-80531285D01*
X142111715Y-80531285D02*
X142254572Y-80531285D01*
X142254572Y-80531285D02*
X142349810Y-80483666D01*
X142349810Y-80483666D02*
X142397429Y-80388428D01*
X142397429Y-80388428D02*
X142397429Y-80340809D01*
X142397429Y-80340809D02*
X142349810Y-80245571D01*
X142349810Y-80245571D02*
X142254572Y-80197952D01*
X142254572Y-80197952D02*
X142111715Y-80197952D01*
X142111715Y-80197952D02*
X142016477Y-80245571D01*
D12*
%TO.C,TP1*%
X158400000Y-84800000D02*
G75*
G02*
X156000000Y-84800000I-1200000J0D01*
G01*
X156000000Y-84800000D02*
G75*
G02*
X158400000Y-84800000I1200000J0D01*
G01*
%TD*%
M02*
